<svg xmlns="http://www.w3.org/2000/svg" width="15.525" height="15.525" viewBox="0 0 15.525 15.525"><defs><style>.a{fill:#8da2b7;}</style></defs><g transform="translate(0 0)"><path class="a" d="M1.941,6.792A4.8,4.8,0,0,1,6.792,1.941a4.8,4.8,0,0,1,4.852,4.852,4.8,4.8,0,0,1-4.852,4.852A4.8,4.8,0,0,1,1.941,6.792Zm11.935,8.442a.961.961,0,0,0,1.358-1.358l-3.008-3.008a6.644,6.644,0,0,0,1.358-4.075A6.751,6.751,0,0,0,6.792,0,6.751,6.751,0,0,0,0,6.792a6.751,6.751,0,0,0,6.792,6.792,6.644,6.644,0,0,0,4.075-1.358Z" transform="translate(0)"/></g></svg>