<?xml version="1.0" encoding="UTF-8" standalone="no"?><!DOCTYPE svg PUBLIC "-//W3C//DTD SVG 1.1//EN" "http://www.w3.org/Graphics/SVG/1.1/DTD/svg11.dtd"><svg width="100%" height="100%" viewBox="0 0 17 17" version="1.1" xmlns="http://www.w3.org/2000/svg" xmlns:xlink="http://www.w3.org/1999/xlink" xml:space="preserve" xmlns:serif="http://www.serif.com/" style="fill-rule:evenodd;clip-rule:evenodd;stroke-linejoin:round;stroke-miterlimit:1.41421;"><path d="M7.1,0.88c0,-0.486 0.394,-0.88 0.881,-0.88c0.331,0 0.707,0 1.038,0c0.487,0 0.881,0.394 0.881,0.88c0,1.668 0,5.12 0,5.12l2.6,0l-4,4l-4,-4l2.6,0c0,0 0,-3.452 0,-5.12Z" style="fill:#fff;"/><path d="M17,15.229c0,0.469 -0.187,0.92 -0.519,1.252c-0.332,0.332 -0.783,0.519 -1.252,0.519c-3.265,0 -10.193,0 -13.458,0c-0.469,0 -0.92,-0.187 -1.252,-0.519c-0.332,-0.332 -0.519,-0.783 -0.519,-1.252c0,-1.054 0,-2.351 0,-3.229c0,-0.265 0.105,-0.52 0.293,-0.707c0.187,-0.188 0.442,-0.293 0.707,-0.293c0.265,0 0.52,0.105 0.707,0.293c0.188,0.187 0.293,0.442 0.293,0.707c0,0 0,0.579 0,1.229c0,0.469 0.187,0.92 0.519,1.252c0.332,0.332 0.783,0.519 1.252,0.519c2.484,0 6.974,0 9.458,0c0.469,0 0.92,-0.187 1.252,-0.519c0.332,-0.332 0.519,-0.783 0.519,-1.252c0,-0.65 0,-1.229 0,-1.229c0,-0.265 0.105,-0.52 0.293,-0.707c0.187,-0.188 0.442,-0.293 0.707,-0.293c0.265,0 0.52,0.105 0.707,0.293c0.188,0.187 0.293,0.442 0.293,0.707c0,0 0,1.79 0,3.229Z" style="fill:#fff;"/></svg>