<?xml version="1.0" encoding="UTF-8" standalone="no"?><!DOCTYPE svg PUBLIC "-//W3C//DTD SVG 1.1//EN" "http://www.w3.org/Graphics/SVG/1.1/DTD/svg11.dtd"><svg width="100%" height="100%" viewBox="0 0 100 34" version="1.1" xmlns="http://www.w3.org/2000/svg" xmlns:xlink="http://www.w3.org/1999/xlink" xml:space="preserve" xmlns:serif="http://www.serif.com/" style="fill-rule:evenodd;clip-rule:evenodd;stroke-linejoin:round;stroke-miterlimit:1.41421;"><rect id="Artboard1" x="0" y="0" width="100" height="34" style="fill:none;"/><g><path d="M11.701,5.479c-1.083,0 -1.91,0.157 -2.481,0.471c-0.57,0.313 -0.817,0.85 -0.741,1.611l0.513,5.247c0.019,0.171 0.029,0.409 0.029,0.713c0,1.046 -0.281,1.839 -0.841,2.381c-0.561,0.542 -1.393,0.908 -2.496,1.098c1.141,0.19 1.982,0.542 2.524,1.055c0.542,0.513 0.813,1.302 0.813,2.367c0,0.342 -0.01,0.599 -0.029,0.77l-0.513,5.247c-0.076,0.78 0.171,1.321 0.741,1.626c0.571,0.304 1.398,0.456 2.481,0.456l0,2.367c-1.996,0 -3.531,-0.309 -4.605,-0.927c-1.074,-0.618 -1.611,-1.668 -1.611,-3.151c0,-0.285 0.009,-0.504 0.028,-0.656l0.542,-4.933c0.019,-0.096 0.029,-0.248 0.029,-0.457c0,-0.874 -0.324,-1.506 -0.97,-1.896c-0.646,-0.39 -1.721,-0.585 -3.223,-0.585l0,-2.566c1.502,0 2.577,-0.195 3.223,-0.585c0.646,-0.39 0.97,-1.022 0.97,-1.896c0,-0.19 -0.01,-0.333 -0.029,-0.428l-0.542,-4.934c-0.019,-0.152 -0.028,-0.37 -0.028,-0.655c0,-1.483 0.537,-2.538 1.611,-3.166c1.074,-0.627 2.609,-0.941 4.605,-0.941l0,2.367Z" style="fill:#fff;fill-rule:nonzero;"/><path d="M20.969,20.479c0.096,1.464 0.519,2.562 1.27,3.294c0.75,0.732 1.696,1.098 2.837,1.098c0.703,0 1.374,-0.11 2.01,-0.328c0.637,-0.219 1.288,-0.547 1.954,-0.984l1.369,1.939c-0.704,0.589 -1.531,1.046 -2.481,1.369c-0.951,0.323 -1.949,0.485 -2.995,0.485c-2.3,0 -4.087,-0.718 -5.361,-2.153c-1.274,-1.436 -1.91,-3.351 -1.91,-5.747c0,-1.501 0.275,-2.856 0.826,-4.063c0.552,-1.207 1.35,-2.153 2.396,-2.838c1.046,-0.684 2.262,-1.026 3.65,-1.026c1.996,0 3.579,0.67 4.748,2.01c1.169,1.34 1.754,3.18 1.754,5.518c0,0.571 -0.028,1.046 -0.085,1.426l-9.982,0Zm3.594,-6.587c-1.027,0 -1.863,0.37 -2.51,1.112c-0.646,0.741 -1.017,1.844 -1.112,3.308l6.987,0c-0.038,-1.426 -0.343,-2.519 -0.913,-3.28c-0.57,-0.76 -1.388,-1.14 -2.452,-1.14Z" style="fill:#fff;fill-rule:nonzero;"/><path d="M38.08,20.479c0.095,1.464 0.518,2.562 1.269,3.294c0.751,0.732 1.697,1.098 2.837,1.098c0.704,0 1.374,-0.11 2.011,-0.328c0.637,-0.219 1.288,-0.547 1.953,-0.984l1.369,1.939c-0.703,0.589 -1.53,1.046 -2.481,1.369c-0.951,0.323 -1.949,0.485 -2.994,0.485c-2.301,0 -4.088,-0.718 -5.362,-2.153c-1.273,-1.436 -1.91,-3.351 -1.91,-5.747c0,-1.501 0.275,-2.856 0.827,-4.063c0.551,-1.207 1.35,-2.153 2.395,-2.838c1.046,-0.684 2.263,-1.026 3.65,-1.026c1.997,0 3.579,0.67 4.749,2.01c1.169,1.34 1.753,3.18 1.753,5.518c0,0.571 -0.028,1.046 -0.085,1.426l-9.981,0Zm3.593,-6.587c-1.027,0 -1.863,0.37 -2.51,1.112c-0.646,0.741 -1.017,1.844 -1.112,3.308l6.987,0c-0.038,-1.426 -0.342,-2.519 -0.913,-3.28c-0.57,-0.76 -1.387,-1.14 -2.452,-1.14Z" style="fill:#fff;fill-rule:nonzero;"/><path d="M55.989,14.662c0,-0.704 0.247,-1.307 0.741,-1.811c0.494,-0.504 1.093,-0.756 1.797,-0.756c0.722,0 1.33,0.252 1.825,0.756c0.494,0.504 0.741,1.107 0.741,1.811c0,0.703 -0.247,1.307 -0.741,1.81c-0.495,0.504 -1.103,0.756 -1.825,0.756c-0.704,0 -1.303,-0.252 -1.797,-0.756c-0.494,-0.503 -0.741,-1.107 -0.741,-1.81Zm0,10.123c0,-0.703 0.247,-1.302 0.741,-1.796c0.494,-0.495 1.093,-0.742 1.797,-0.742c0.741,0 1.354,0.247 1.839,0.742c0.485,0.494 0.727,1.093 0.727,1.796c0,0.723 -0.242,1.331 -0.727,1.825c-0.485,0.495 -1.098,0.742 -1.839,0.742c-0.704,0 -1.303,-0.247 -1.797,-0.742c-0.494,-0.494 -0.741,-1.102 -0.741,-1.825Z" style="fill:#fff;fill-rule:nonzero;"/><path d="M72.842,22.447c0,0.874 0.176,1.506 0.528,1.896c0.352,0.39 0.889,0.585 1.611,0.585c0.684,0 1.345,-0.2 1.982,-0.599c0.637,-0.399 1.145,-0.903 1.526,-1.511l0,-10.894l3.194,0l0,15.057l-2.767,0l-0.199,-1.939c-0.533,0.741 -1.226,1.312 -2.082,1.711c-0.855,0.399 -1.739,0.599 -2.652,0.599c-1.445,0 -2.529,-0.39 -3.251,-1.169c-0.722,-0.78 -1.084,-1.892 -1.084,-3.337l0,-10.922l3.194,0l0,10.523Z" style="fill:#fff;fill-rule:nonzero;"/><path d="M88.299,3.112c1.996,0 3.531,0.309 4.605,0.927c1.074,0.618 1.611,1.668 1.611,3.151c0,0.285 -0.009,0.504 -0.028,0.656l-0.542,4.962l-0.029,0.399c0,0.875 0.338,1.512 1.013,1.911c0.675,0.399 1.735,0.599 3.18,0.599l0,2.566c-1.445,0 -2.505,0.205 -3.18,0.613c-0.675,0.409 -1.013,1.051 -1.013,1.925l0.029,0.4l0.542,4.905c0.019,0.152 0.028,0.37 0.028,0.655c0,1.483 -0.537,2.538 -1.611,3.166c-1.074,0.627 -2.609,0.941 -4.605,0.941l0,-2.367c1.083,0 1.91,-0.152 2.481,-0.456c0.57,-0.305 0.817,-0.846 0.741,-1.626l-0.513,-5.247c-0.019,-0.171 -0.029,-0.418 -0.029,-0.741c0,-1.065 0.285,-1.859 0.856,-2.382c0.57,-0.522 1.464,-0.869 2.68,-1.04c-1.197,-0.21 -2.086,-0.58 -2.666,-1.113c-0.58,-0.532 -0.87,-1.33 -0.87,-2.395c0,-0.304 0.01,-0.542 0.029,-0.713l0.513,-5.247c0.076,-0.761 -0.176,-1.298 -0.756,-1.611c-0.58,-0.314 -1.402,-0.471 -2.466,-0.471l0,-2.367Z" style="fill:#fff;fill-rule:nonzero;"/></g></svg>