<?xml version="1.0" encoding="UTF-8"?>
<svg width="136px" height="181px" viewBox="0 0 136 181" version="1.1" xmlns="http://www.w3.org/2000/svg" xmlns:xlink="http://www.w3.org/1999/xlink">
    <title>Shape</title>
    <g id="Page-1" stroke="none" stroke-width="1" fill="none" fill-rule="evenodd">
        <path d="M34.6437098,127.987139 C31.5884879,124.932261 33.1811584,125.793312 25.8124397,123.821271 C22.4691707,122.924857 19.5299916,121.202068 16.8723365,119.13836 L0.921942668,158.246161 C-0.62163275,162.032316 2.26124154,166.145656 6.34642925,165.991161 L24.8703643,165.284261 L37.610698,178.742138 C40.4231913,181.709469 45.3591307,180.78456 46.9027061,176.998406 L65.201422,132.132065 C61.3905485,134.255511 57.1611656,135.500053 52.7879308,135.500053 C45.9324784,135.500053 39.4917589,132.831755 34.6437098,127.987139 Z M135.077735,158.246161 L119.127342,119.13836 C116.469687,121.205501 113.530508,122.924857 110.187238,123.821271 C102.779724,125.803955 104.40398,124.939127 101.355968,127.987139 C96.5079193,132.831755 90.0637666,135.500053 83.2083142,135.500053 C78.8350794,135.500053 74.6056964,134.252078 70.794823,132.132065 L89.0935388,176.998406 C90.6367709,180.78456 95.5764869,181.709469 98.3852036,178.742138 L111.129314,165.284261 L129.653249,165.991161 C133.738437,166.145656 136.621311,162.028883 135.077735,158.246161 Z M92.9607171,120.03134 C98.3326754,114.564625 98.9479083,115.035663 106.597808,112.951012 C111.480876,111.618579 115.298959,107.733548 116.606672,102.76259 C119.236518,92.778445 118.554337,93.9841916 125.729766,86.6786441 C129.30512,83.0401183 130.700724,77.7351077 129.393011,72.7638061 C126.766941,62.7865273 126.763508,64.1786978 129.393011,54.190776 C130.700724,49.2198177 129.30512,43.9148072 125.729766,40.275938 C118.554337,32.9707339 119.236518,34.1730473 116.606672,24.191992 C115.298959,19.2210337 111.480876,15.336346 106.597808,14.0039135 C96.7963097,11.3284057 97.9773372,12.0280958 90.7950423,4.71911512 C87.2196877,1.08058924 82.0060008,-0.343510143 77.1229329,0.988922289 C67.3248682,3.66099691 68.6923194,3.66443013 58.8767453,0.988922289 C53.9936774,-0.343510143 48.7799905,1.0768127 45.2046359,4.71911512 C38.0292074,12.0246626 39.2105782,11.3284057 29.4053037,14.0039135 C24.5222358,15.336346 20.7041526,19.2210337 19.3964393,24.191992 C16.7703698,34.1730473 17.448774,32.9707339 10.2733455,40.275938 C6.69799091,43.9148072 5.29895402,49.2198177 6.61010049,54.190776 C9.23616998,64.1611884 9.23994652,62.7690179 6.61010049,72.7603729 C5.30238724,77.7313312 6.69799091,83.0363417 10.2733455,86.6786441 C17.448774,93.9841916 16.7665933,92.778445 19.3964393,102.76259 C20.7041526,107.733548 24.5222358,111.618579 29.4053037,112.951012 C37.2732125,115.095401 37.860293,114.757915 43.0389611,120.03134 C47.6902867,124.76678 54.9357528,125.614098 60.5257205,122.077539 C62.6838422,120.707341 65.2433073,119.913581 67.9867928,119.913581 C70.7302784,119.913581 73.3192691,120.707341 75.4773908,122.077539 C81.0639254,125.614098 88.3093915,124.76678 92.9607171,120.03134 Z M34.8335668,62.3611515 C34.8335668,43.7177404 49.6836138,28.6043655 67.9998391,28.6043655 C86.3160643,28.6043655 101.166111,43.7177404 101.166111,62.3611515 C101.166111,81.0045625 86.3160643,96.1182807 67.9998391,96.1182807 C49.6836138,96.1182807 34.8335668,81.0045625 34.8335668,62.3611515 Z" id="Shape" fill="#FFFFFF" fill-rule="nonzero"></path>
    </g>
</svg>