<?xml version="1.0" encoding="UTF-8"?>
<svg width="1440px" height="200px" viewBox="0 0 1440 200" version="1.1" xmlns="http://www.w3.org/2000/svg" xmlns:xlink="http://www.w3.org/1999/xlink">
    <title>waves</title>
    <g id="Page-1" stroke="none" stroke-width="1" fill="none" fill-rule="evenodd" opacity="0.500842866">
        <g id="ee-docs-welcome" transform="translate(-358.000000, -705.000000)" fill-rule="nonzero">
            <g id="Banner-3" transform="translate(742.000000, 682.000000)">
                <g id="waves" transform="translate(-384.000000, 23.000000)">
                    <g id="waves-border-footer" transform="translate(720.000000, 50.000000) rotate(180.000000) translate(-720.000000, -50.000000) translate(0.000000, 0.000000)">
                        <path d="M1102.792,46.2305923 C1008.004,35.6742153 908.536,14.8959409 812.608,6.37684838 C713.896,-2.41084134 630.936,-1.89898628 532.068,6.57449538 C462.66,12.519109 395.268,22.3203731 325.668,27.7886068 C196.335806,37.8353912 122.958774,32.7369574 5.45696821e-12,13.0461677 L5.45696821e-12,60 L1440,60 L1440,47.7357502 C1358.628,59.4526698 1186.852,55.5960194 1102.792,46.2305923 Z" id="Path" fill="#D9D2F0" opacity="0.66901652" transform="translate(720.000000, 30.000000) rotate(180.000000) translate(-720.000000, -30.000000) "></path>
                        <g id="waves" opacity="0.15" transform="translate(720.000000, 47.574683) scale(-1, 1) translate(-720.000000, -47.574683) translate(0.000000, 0.000000)" fill="#413185">
                            <path d="M592.068,40.3056551 C690.936,25.2042669 793.896,3.81892186 892.608,19.4802898 C988.536,34.6629653 1062.54553,69.9190352 1186.792,87.9348131 C1270,100 1358.628,97.4077203 1440,76.5529922 L1440,0 L0,0 L0,69.9308307 C122.958774,105.023638 256.335806,96.0186361 385.668,78.1133171 C455.268,68.3678639 522.66,50.9001098 592.068,40.3056551 Z" id="Path"></path>
                        </g>
                        <g id="waves" transform="translate(0.000000, 0.000000)" fill="#F6F6F9">
                            <path d="M592.068,20.4648387 C690.936,6.55271458 793.896,5.71232909 892.608,20.1403334 C988.536,34.1273434 1088.004,68.2420018 1182.792,85.5739124 C1266.852,100.950471 1358.628,107.282484 1440,88.070107 L1440,0 L0,0 L0,31.0903067 C122.958774,63.4194864 256.335806,71.7903127 385.668,55.2950729 C455.268,46.3170933 522.66,30.2249593 592.068,20.4648387 Z" id="Path"></path>
                        </g>
                    </g>
                    <g id="waves-border-hero" transform="translate(0.000000, 100.000000)">
                        <g id="waves" opacity="0.2" transform="translate(720.000000, 50.000000) scale(-1, 1) translate(-720.000000, -50.000000) translate(0.000000, 0.000000)" fill="#413185">
                            <path d="M592.068,40.3056551 C690.936,25.2042669 793.896,9.81892186 892.608,25.4802898 C988.536,40.6629653 1088.004,73.1213013 1182.792,91.9348131 C1266.852,108.625821 1358.628,97.4077203 1440,76.5529922 L1440,0 L0,0 L0,69.9308307 C122.958774,105.023638 256.335806,96.0186361 385.668,78.1133171 C455.268,68.3678639 522.66,50.9001098 592.068,40.3056551 Z" id="Path"></path>
                        </g>
                        <path d="M1182.792,46.2305923 C1088.004,35.6742153 988.536,14.8959409 892.608,6.37684838 C793.896,-2.41084134 630.936,-1.89898628 532.068,6.57449538 C462.66,12.519109 395.268,22.3203731 325.668,27.7886068 C196.335806,37.8353912 122.958774,32.7369574 0,13.0461677 L0,60 L1440,60 L1440,47.7357502 C1358.628,59.4526698 1266.852,55.5960194 1182.792,46.2305923 Z" id="Path" fill="#ECEAF3" opacity="0.5" transform="translate(720.000000, 30.000000) rotate(180.000000) translate(-720.000000, -30.000000) "></path>
                        <g id="waves" fill="#F6F6F9">
                            <path d="M592.068,20.4648387 C690.936,6.55271458 793.896,5.71232909 892.608,20.1403334 C988.536,34.1273434 1088.004,68.2420018 1182.792,85.5739124 C1266.852,100.950471 1358.628,107.282484 1440,88.070107 L1440,0 L0,0 L0,31.0903067 C122.958774,63.4194864 256.335806,71.7903127 385.668,55.2950729 C455.268,46.3170933 522.66,30.2249593 592.068,20.4648387 Z" id="Path"></path>
                        </g>
                    </g>
                </g>
            </g>
        </g>
    </g>
</svg>