<?xml version="1.0" encoding="UTF-8"?>
<svg width="476px" height="476px" viewBox="0 0 476 476" version="1.1" xmlns="http://www.w3.org/2000/svg" xmlns:xlink="http://www.w3.org/1999/xlink">
    <title>illustration-hero-features</title>
    <g id="Slicing" stroke="none" stroke-width="1" fill="none" fill-rule="evenodd">
        <g id="illustration-hero-features" fill-rule="nonzero">
            <g id="Sitemap_creation_5_">
                <path d="M115.254339,120.144522 C165.045385,70.0610238 150.790407,38.6740833 184.860428,15.4858834 C237.284642,-20.1926666 335.125153,10.5032521 392.846895,59.5787936 C463.544722,119.687305 500.019165,229.437683 458.468141,328.724017 C414.218964,434.460753 297.787717,489.350231 193.898458,472.809869 C101.124131,458.038627 9.92502624,384.964364 0.785620414,297.321489 C-0.204741821,287.821237 -4.57689216,236.47 26.0879459,192.19784 C51.4344607,155.599659 75.7828152,159.844508 115.254339,120.144522 Z" id="Path" fill="#B0B3F8" opacity="0.2"></path>
                <g id="Group" transform="translate(13.395193, 152.791408)">
                    <g id="Path">
                        <path d="M425.795975,12.6929806 L16.469646,0.0623478375 C6.73498307,0.0623478375 0,6.39325117 0,14.1737417 L0,242.564262 C0,250.344752 6.73498307,256.675656 16.469646,256.675656 L164.371538,248.666556 L145.383097,304.06261 L125.29252,304.189903 C119.028024,304.189903 113.930648,308.263295 113.930648,313.271905 C113.930648,318.280515 119.028024,322.353907 125.29252,322.353907 L293.552724,315.939873 C299.81722,315.939873 288.094035,256.678253 288.094035,256.678253 C288.094035,256.678253 435.530638,12.6929806 425.795975,12.6929806 Z" fill="#B0B3F8"></path>
                        <polygon fill="#FFFFFF" points="285.450469 227.473487 181.069929 227.473487 151.457838 313.859014 315.059961 313.859014"></polygon>
                        <path d="M441.649569,0.859880592 L24.870829,0.859880592 C15.6716376,0.859880592 9.39934342,6.81929472 9.39934342,14.1737417 L9.39934342,242.564262 C9.39934342,249.916111 15.6716376,255.878123 24.870829,255.878123 L441.649569,255.878123 C450.848761,255.878123 457.121055,249.918709 457.121055,242.564262 L457.121055,14.1737417 C457.121055,6.81929472 450.848761,0.859880592 441.649569,0.859880592 Z" fill="#FFFFFF"></path>
                        <path d="M332.826695,304.984838 L133.691104,304.984838 C127.967278,304.984838 123.327392,308.694535 123.327392,313.269307 C123.327392,317.84408 127.967278,321.553776 133.691104,321.553776 L332.826695,321.553776 C338.550521,321.553776 343.190407,317.84408 343.190407,313.269307 C343.190407,308.694535 338.550521,304.984838 332.826695,304.984838 Z" fill="#FFFFFF"></path>
                        <g transform="translate(301.699556, 276.528634)">
                            <path d="M9.18060785,25.1309864 L0.860005453,0.859492838 L9.18060785,25.1309864 Z" fill="#FFFFFF"></path>
                            <path d="M9.18060785,25.990867 C8.82189397,25.990867 8.48917385,25.7674539 8.36700318,25.4089538 L0.0464007823,1.13746028 C-0.106962398,0.688036285 0.132180188,0.199644892 0.581872227,0.0463731246 C1.03156427,-0.106898642 1.52024694,0.132101401 1.67361012,0.581525396 L9.99421252,24.853019 C10.1475757,25.3024429 9.90843312,25.7908343 9.45874108,25.9441061 C9.36516355,25.9778779 9.27158601,25.990867 9.18060785,25.990867 Z" fill="#352670"></path>
                        </g>
                        <path d="M332.826695,322.411059 C332.35101,322.411059 331.966302,322.02658 331.966302,321.551178 C331.966302,321.075776 332.35101,320.691298 332.826695,320.691298 C338.067037,320.691298 342.330014,317.360884 342.330014,313.266709 C342.330014,309.172535 338.067037,305.842121 332.826695,305.842121 L292.076279,305.842121 C291.600593,305.842121 291.215885,305.457643 291.215885,304.98224 C291.215885,304.506838 291.600593,304.12236 292.076279,304.12236 L332.826695,304.12236 C339.01581,304.12236 344.050801,308.224328 344.050801,313.264111 C344.050801,318.309091 339.01581,322.411059 332.826695,322.411059 Z" fill="#352670"></path>
                        <path d="M318.342973,322.411059 L265.812184,322.411059 C265.336498,322.411059 264.951791,322.02658 264.951791,321.551178 C264.951791,321.075776 265.336498,320.691298 265.812184,320.691298 L318.342973,320.691298 C318.818658,320.691298 319.203366,321.075776 319.203366,321.551178 C319.203366,322.02658 318.818658,322.411059 318.342973,322.411059 Z" fill="#352670"></path>
                        <path d="M236.509419,1.71976118 L216.920522,1.71976118 C216.444836,1.71976118 216.060129,1.33528285 216.060129,0.859880592 C216.060129,0.384478331 216.444836,0 216.920522,0 L236.509419,0 C236.985105,0 237.369813,0.384478331 237.369813,0.859880592 C237.369813,1.33528285 236.985105,1.71976118 236.509419,1.71976118 Z" fill="#352670"></path>
                        <path d="M441.649569,256.735406 L24.870829,256.735406 C15.5598644,256.735406 8.53894998,250.643502 8.53894998,242.561664 L8.53894998,14.1737417 C8.53894998,6.09450111 15.5598644,0.00259782656 24.870829,0.00259782656 L97.1178841,0.00259782656 C97.5935699,0.00259782656 97.9782775,0.387076158 97.9782775,0.862478418 C97.9782775,1.33788068 97.5935699,1.72235901 97.1178841,1.72235901 L24.870829,1.72235901 C16.5424285,1.72235901 10.2597369,7.07647955 10.2597369,14.1737417 L10.2597369,242.564262 C10.2597369,249.664122 16.5424285,255.018242 24.870829,255.018242 L441.649569,255.018242 C449.97797,255.018242 456.260662,249.664122 456.260662,242.564262 L456.260662,14.1737417 C456.260662,7.07388172 449.97797,1.72235901 441.649569,1.72235901 L250.525254,1.72235901 C250.049568,1.72235901 249.664861,1.33788068 249.664861,0.862478418 C249.664861,0.387076158 250.049568,0.00259782656 250.525254,0.00259782656 L441.649569,0.00259782656 C450.960534,0.00259782656 457.981448,6.09450111 457.981448,14.1737417 L457.981448,242.564262 C457.981448,250.640904 450.960534,256.735406 441.649569,256.735406 Z" fill="#352670"></path>
                    </g>
                    <path d="M443.500325,237.254304 C443.500325,240.52237 440.848962,243.172153 437.578947,243.172153 L29.5679014,243.172153 C26.2978864,243.172153 23.646523,240.52237 23.646523,237.254304 L23.646523,19.1927426 C23.646523,15.9246768 26.2978864,13.2748937 29.5679014,13.2748937 L437.576347,13.2748937 C440.846362,13.2748937 443.500325,15.9246768 443.500325,19.1927426 L443.500325,237.254304 L443.500325,237.254304 Z" id="Path" fill="#DFE1FF"></path>
                    <g transform="translate(22.159680, 11.833100)" id="Path">
                        <path d="M413.059033,233.069206 L9.1420052,233.069206 C4.10181524,233.069206 0,229.712814 0,225.590063 C0,225.114661 0.38470764,224.730182 0.860393438,224.730182 C1.33607924,224.730182 1.72078688,225.114661 1.72078688,225.590063 C1.72078688,228.767205 5.05058746,231.349444 9.1420052,231.349444 L413.059033,231.349444 C417.150451,231.349444 420.480252,228.764607 420.480252,225.590063 L420.480252,135.601351 C420.480252,135.125949 420.864959,134.74147 421.340645,134.74147 C421.816331,134.74147 422.201039,135.125949 422.201039,135.601351 L422.201039,225.590063 C422.201039,229.712814 418.099223,233.069206 413.059033,233.069206 Z" fill="#352670"></path>
                        <g transform="translate(0.000000, 17.763938)">
                            <path d="M0.860393438,0.859880592 L0.860393438,14.9011332 L0.860393438,0.859880592 Z" fill="#FFFFFF"></path>
                            <path d="M0.860393438,15.7610137 C0.38470764,15.7610137 0,15.3765354 0,14.9011332 L0,0.859880592 C0,0.384478331 0.38470764,0 0.860393438,0 C1.33607924,0 1.72078688,0.384478331 1.72078688,0.859880592 L1.72078688,14.9011332 C1.7181875,15.3765354 1.33347986,15.7610137 0.860393438,15.7610137 Z" fill="#352670"></path>
                        </g>
                        <path d="M0.860393438,8.33902326 C0.38470764,8.33902326 0,7.95454493 0,7.47914267 C0,3.35639192 4.10181524,0 9.1420052,0 L33.1628383,0 C33.6385241,0 34.0232317,0.384478331 34.0232317,0.859880592 C34.0232317,1.33528285 33.6385241,1.71976118 33.1628383,1.71976118 L9.1420052,1.71976118 C5.05058746,1.71976118 1.72078688,4.30459861 1.72078688,7.47914267 C1.7181875,7.95454493 1.33347986,8.33902326 0.860393438,8.33902326 Z" fill="#352670"></path>
                        <path d="M421.340645,19.4836992 C420.864959,19.4836992 420.480252,19.0992209 420.480252,18.6238186 L420.480252,7.47914267 C420.480252,4.30459861 417.150451,1.71976118 413.059033,1.71976118 L388.357164,1.71976118 C387.881478,1.71976118 387.49677,1.33528285 387.49677,0.859880592 C387.49677,0.384478331 387.881478,0 388.357164,0 L413.059033,0 C418.099223,0 422.201039,3.35379409 422.201039,7.47914267 L422.201039,18.6238186 C422.201039,19.0992209 421.816331,19.4836992 421.340645,19.4836992 Z" fill="#352670"></path>
                        <g transform="translate(420.480252, 33.350897)">
                            <path d="M0.860393438,16.3792965 L0.860393438,0.859880592 L0.860393438,16.3792965 Z" fill="#FFFFFF"></path>
                            <path d="M0.860393438,17.2391771 C0.38470764,17.2391771 0,16.8546987 0,16.3792965 L0,0.859880592 C0,0.384478331 0.38470764,0 0.860393438,0 C1.33607924,0 1.72078688,0.384478331 1.72078688,0.859880592 L1.72078688,16.3792965 C1.72078688,16.8546987 1.33607924,17.2391771 0.860393438,17.2391771 Z" fill="#352670"></path>
                        </g>
                    </g>
                </g>
                <g id="Group" transform="translate(215.593244, 3.651805)">
                    <path d="M102.937493,43.9795845 C108.250617,53.0408035 120.722423,54.8229125 123.519352,55.1372495 C134.886423,56.4101846 143.277208,50.9469553 145.546463,49.3570854 C149.481919,51.775662 159.021628,56.867402 171.472639,55.9114019 C181.316476,55.1580322 197.903094,50.24814 201.113323,38.7449639 C204.960399,24.9738853 187.622562,8.98426287 172.748933,3.33658792 C160.274528,-1.3992499 141.260093,-2.00454349 132.157078,7.58143652 C128.811681,11.1040893 128.297005,14.4319052 124.348553,15.5827423 C117.262654,17.6480144 112.050905,8.93230633 102.86471,9.37393685 C97.3566328,9.63891516 93.0520662,13.0732419 90.395504,15.7412097 C83.6163315,17.9805362 79.4599294,22.477374 79.9668077,26.0961464 C80.494481,29.8655928 86.0077574,32.1490823 87.0838991,32.5959085 C92.6673586,34.9105719 95.6306472,32.5751259 98.9370534,34.998898 C101.871749,37.1473006 100.683834,40.137399 102.937493,43.9795845 Z" id="Path" fill="#352670"></path>
                    <g transform="translate(0.000000, 9.088026)">
                        <path d="M110.228742,44.2073643 C110.228742,44.2073643 82.3322398,53.1127137 68.7712955,44.2073643 C62.3950263,40.0196679 38.6601246,10.4460103 33.5133602,7.71309675 C30.3837116,6.05048775 25.5202792,3.55397643 22.1904786,1.8498022 C19.8666365,0.662595466 17.1476892,0.535301964 14.7250709,1.49909562 L0.862598951,7.00908575 C0.862598951,7.00908575 4.89942979,10.2459776 11.4706522,8.95226002 C15.707635,8.11835769 20.0979809,8.54440125 24.0022436,10.3940538 L24.26738,10.5213473 L11.8163692,14.3947067 C11.8163692,14.3947067 13.7035161,17.5380768 20.3761142,16.3300875 C23.900868,15.6936199 28.1482482,16.4833592 31.3714744,17.3744137 L31.5976201,17.4939138 C31.5976201,17.4939138 43.502762,50.5252785 60.9627702,60.8620304 C86.3664713,75.9034461 113.062062,66.4473575 113.062062,66.4473575 L110.228742,44.2073643 Z" id="Path" fill="#DFE1FF"></path>
                        <path d="M93.0442681,70.1908255 C83.5617446,70.1908255 71.8801492,68.3203904 60.5234756,61.5972153 C43.7782958,51.6813113 32.3306441,21.9491863 30.919183,18.1381747 C27.9896863,17.3458376 23.8852717,16.5664897 20.5294774,17.1717833 C13.3526004,18.4732944 11.1665252,14.9818155 11.0781464,14.8311415 C10.9429789,14.6051306 10.9169851,14.329761 11.013162,14.0829675 C11.1067396,13.836174 11.3094909,13.6465326 11.5616303,13.5685978 L21.7459853,10.4018472 C18.5825448,9.31855357 15.1279741,9.10812961 11.6370122,9.79395583 C4.75126536,11.1500213 0.501285694,7.81960764 0.321928754,7.67932501 C0.0827861673,7.48708584 -0.0367851262,7.18314013 0.0100036408,6.88179225 C0.0541930319,6.58044437 0.259543732,6.32325954 0.54287571,6.211553 L14.4053476,0.701562864 C17.0593105,-0.35315472 20.0407947,-0.212872085 22.580385,1.08344337 C26.037555,2.84996543 30.8126086,5.3023137 33.9162635,6.95193357 C36.6430088,8.39892296 43.8406808,16.4625766 51.4646505,24.9990347 C58.693515,33.0964601 66.1693202,41.4692551 69.2443819,43.4877663 C82.3114448,52.0709853 109.693271,43.4747772 109.968805,43.3864511 C110.213146,43.3085163 110.478283,43.342288 110.694031,43.4799728 C110.909779,43.6176576 111.052745,43.8436686 111.083937,44.0956577 L113.917257,66.3330531 C113.969244,66.7331184 113.732701,67.1175967 113.350593,67.2526837 C113.199829,67.3072381 104.816842,70.1908255 93.0442681,70.1908255 Z M23.1392508,15.2390003 C26.1389306,15.2390003 29.2607812,15.8962504 31.5976201,16.5405114 C31.6548064,16.5560984 31.7119927,16.5794788 31.7665796,16.6080549 L31.9927253,16.7249571 C32.1850791,16.8236745 32.3306441,16.9925332 32.4034267,17.1951637 C32.5203986,17.5224898 44.4073448,50.0550719 61.396866,60.1164541 C83.9880423,73.4926631 107.884105,67.1357815 112.11329,65.8420639 L109.498318,45.3244297 C104.315162,46.8467561 80.7466205,53.1023224 68.2930103,44.9243644 C65.0307935,42.7811575 57.8149259,34.6993191 50.17536,26.1446762 C42.9880855,18.0966095 35.5590691,9.77577104 33.1026588,8.47166211 C30.006802,6.82723789 25.2421459,4.38008527 21.7901747,2.61616104 C19.6898789,1.54325867 17.2256705,1.4289543 15.0343966,2.2992262 L2.78353777,7.16755317 C4.39515086,7.94949897 7.34024381,8.88731436 11.296494,8.10796639 C15.8609982,7.2091184 20.3787135,7.73128154 24.3635569,9.61470579 L24.6286932,9.73940147 C24.9484165,9.89007541 25.1433697,10.2225972 25.1199753,10.5759016 C25.0965809,10.929206 24.8548389,11.2305539 24.5169201,11.3370648 L13.4695723,14.7739893 C14.5093227,15.4338373 16.5524322,16.1430439 20.2175522,15.4805982 C21.1585263,15.3117394 22.1436898,15.2390003 23.1392508,15.2390003 Z" id="Shape" fill="#352670"></path>
                    </g>
                    <path d="M169.120204,108.668064 C169.120204,108.668064 144.855029,125.133088 111.003357,120.285544 C111.003357,120.285544 115.578258,111.452934 123.40238,108.280987 C131.223902,105.111639 169.120204,108.668064 169.120204,108.668064 Z" id="Path" fill="#352670"></path>
                    <path d="M202.509188,150.202115 C201.00155,113.271412 179.699664,99.6588011 179.699664,99.6588011 L135.798804,110.603444 L117.688951,150.202115 L202.509188,150.202115 Z" id="Path" fill="#352670"></path>
                    <path d="M111.174915,49.8272921 L134.257374,38.3059313 C140.108569,35.3859742 147.191868,36.7056701 151.582214,41.5506166 C161.652197,52.6615208 179.000432,74.137753 187.721338,98.5858988 C187.721338,98.5858988 172.039303,118.578772 151.301482,117.186337 C130.56366,115.793902 118.338795,114.461217 111.005956,120.282946 C111.005956,120.282946 104.905221,89.6285928 103.673116,62.5566422 C103.426176,57.2077173 106.379067,52.2224881 111.174915,49.8272921 Z" id="Path" fill="#F62958"></path>
                    <path d="M147.930091,112.481673 C147.490797,112.481673 147.116487,112.146553 147.074896,111.702325 C146.297683,103.391878 143.703506,97.4844203 139.365147,94.1462132 C136.056142,91.6003431 132.546984,91.0963648 128.829877,90.5638104 C124.876226,89.9974842 120.787408,89.4103754 116.61281,86.3813096 C112.232861,83.2041677 109.11361,78.2968733 107.338236,71.7945135 C107.213466,71.337296 107.483801,70.8644915 107.941292,70.7397959 C108.398782,70.6125024 108.871868,70.8852742 108.996638,71.3424916 C110.665438,77.4577754 113.566341,82.0481349 117.621368,84.9888746 C121.450248,87.7659511 125.325918,88.321886 129.071619,88.8596361 C132.843313,89.3999841 136.744976,89.9611146 140.410097,92.7797564 C145.14356,96.4219092 147.961284,102.73203 148.785286,111.538662 C148.829475,112.011466 148.481159,112.429717 148.008072,112.47388 C147.984678,112.479075 147.958684,112.481673 147.930091,112.481673 Z" id="Path" fill="#352670"></path>
                    <g transform="translate(133.804601, 36.765404)">
                        <path d="M50.4257755,112.174167 L1.68487718,12.5864859 C-0.28544979,8.55985472 1.37295206,3.6967234 5.39418665,1.70938608 L5.39418665,1.70938608 C9.13468864,-0.137668601 13.6654009,1.13786424 15.8904667,4.66571271 C22.391506,14.9608994 34.8425167,35.6915553 37.6394453,47.6441553 C41.4657266,64.0000714 47.020593,72.0974967 50.4257755,77.3087368 C52.6248476,80.6729222 55.3775867,92.6203266 57.0515848,100.6606 C57.9015807,104.739187 62.0839766,107.194134 66.0584225,105.941981 L66.0714193,105.936786 C69.629965,104.817122 73.5082339,105.469177 76.5001156,107.692916 L81.7430569,111.587058 C82.3097209,112.007906 82.0003951,112.909352 81.2933649,112.893965 L50.4257755,112.174167 Z" id="Path" fill="#DFE1FF"></path>
                        <path d="M81.3141599,113.753646 C81.301163,113.753646 81.2881661,113.753646 81.2751692,113.753646 L49.882506,113.021059 L0.912862521,12.9631707 C-1.26021577,8.52088733 0.5801424,3.12779939 5.01467776,0.937831596 C9.16068239,-1.11185356 14.1514842,0.296168435 16.6208914,4.20589741 C23.5872189,15.2388668 35.6899133,35.5278923 38.4790437,47.4467205 C42.1363656,63.0778429 47.3377169,71.0193987 50.7792907,76.272204 L51.148402,76.8359324 C53.360471,80.2234982 56.0378282,91.565609 57.896382,100.483948 C58.2524965,102.193317 59.3182406,103.676676 60.8232793,104.559937 C62.3257186,105.438003 64.140083,105.645829 65.8010842,105.121068 C69.6221669,103.915676 73.8097615,104.622285 77.0173914,107.004492 L82.2603327,110.901232 C82.8165992,111.314287 83.0401455,112.033884 82.8139998,112.688537 C82.5904535,113.3302 81.9899976,113.753646 81.3141599,113.753646 Z M50.9690451,111.327276 L80.8904616,112.026091 L75.9880386,108.383938 C73.2249019,106.329057 69.6143688,105.723764 66.3313569,106.757699 C64.1920705,107.430536 61.8734272,107.168155 59.9524884,106.043296 C58.0289502,104.91584 56.6642778,103.016828 56.209387,100.834654 C53.6282067,88.4326302 51.3173615,80.2442808 49.7057484,77.7763456 L49.3392364,77.2152151 C45.8300789,71.8610945 40.5273519,63.766267 36.8024462,47.8389923 C34.0705021,36.1617619 22.0743821,16.0649757 15.1652408,5.12293018 C13.1689201,1.95877743 9.13208926,0.823527227 5.77629491,2.47834275 C2.18915611,4.25006046 0.699713693,8.61440908 2.45949121,12.2072032 L50.9690451,111.327276 Z" id="Shape" fill="#352670"></path>
                    </g>
                    <g transform="translate(92.368430, 21.973191)">
                        <g>
                            <path d="M18.8610719,8.58602104 C18.8974631,8.54445581 21.2576965,5.84531401 19.9632073,3.868368 C18.6583205,1.87583503 16.0771402,4.51262899 16.0771402,4.51262899 C16.0771402,4.51262899 13.8884657,0.724997863 8.89506448,0.860084844 C8.89506448,0.860084844 6.76357621,5.70243355 1.3178836,5.67645529 C1.3178836,5.67645529 2.56038531,8.51068407 4.3981441,11.6540542 L4.99080181,15.0390222 C5.0791806,15.5481962 5.65364268,15.8131745 6.09813597,15.550794 L6.09813597,15.550794 C6.43345546,15.3533592 6.8623525,15.4416853 7.09889571,15.7534245 C8.44537245,17.5225444 9.90622173,19.0059034 11.3410772,19.6475665 C13.3477955,20.5464145 15.1439643,19.6215883 16.4956397,17.8966314 C19.6772759,21.751806 24.379547,28.3139159 22.1856737,31.1507425 C22.1856737,31.1507425 29.3469544,33.2238081 36.4276545,23.4923498 L18.8610719,8.58602104 Z" id="Path" fill="#DFE1FF"></path>
                            <path d="M23.9454512,32.2054601 C22.7705333,32.2054601 22.0401086,32.0054275 21.9465311,31.9794492 L20.7326225,31.6287426 L21.5046372,30.6285794 C22.7731327,28.986753 20.8911845,24.7574914 16.4644472,19.2267186 C14.8294398,20.8373711 12.8773084,21.2815994 10.9875621,20.4373058 C9.58389911,19.8086318 8.06066481,18.4291859 6.45944922,16.3379355 C6.02275407,16.5639464 5.5002795,16.5795334 5.05058746,16.3717072 C4.57230229,16.150892 4.23438341,15.7118593 4.14340526,15.192294 L3.5767413,11.9579999 C1.77797315,8.86139065 0.582260212,6.14146624 0.530272693,6.02456405 L0,4.81397687 L1.32308236,4.81917252 C1.33607924,4.81917252 1.34907612,4.81917252 1.362073,4.81917252 C6.1267291,4.81917252 8.03207167,0.691226117 8.11005295,0.514573911 L8.3309999,0.0209868648 L8.8716701,0.00539990543 C12.8461159,-0.121893596 15.2011505,2.03170462 16.2227053,3.25787876 C16.8881455,2.75909606 17.8993028,2.17718291 18.9182581,2.27849815 C19.4199377,2.32785685 20.1321667,2.56166124 20.680635,3.40075922 C21.8789473,5.22962912 20.7716132,7.37543386 20.0359898,8.45872753 L37.5921749,23.3572629 L37.1242872,24.0015238 C31.9593272,31.0961882 26.7189853,32.2054601 23.9454512,32.2054601 Z M23.4619673,30.4753076 C25.5102755,30.5948077 30.298326,30.064851 35.2527366,23.624839 L17.6341664,8.67174931 L18.2138272,8.01449919 C18.2424204,7.98072745 20.1529617,5.72841182 19.2405807,4.33597678 C19.0508263,4.04761803 18.8792675,3.9956615 18.7518981,3.98267237 C18.0994547,3.92552019 17.0804993,4.71525946 16.6905929,5.11272692 L15.8977833,5.91545533 L15.3311193,4.93867254 C15.2557374,4.81137904 13.4595686,1.84206328 9.41753905,1.71736761 C8.72870442,2.93834609 6.65440242,5.92065098 2.6253697,6.45320543 C3.15044365,7.55468389 4.03943022,9.33679291 5.13896624,11.2202172 L5.21694752,11.3527063 L5.80960524,14.7298809 C6.49324111,14.4181417 7.31724329,14.6155765 7.78253158,15.2286636 C9.22258585,17.1198813 10.5378701,18.3434576 11.691993,18.8578273 C13.4985593,19.6683491 14.9334148,18.4915337 15.8172026,17.3614792 L16.4774441,16.5197834 L17.1584806,17.3458922 C22.1024937,23.3416759 24.2157863,27.7449919 23.4619673,30.4753076 Z" id="Shape" fill="#352670"></path>
                        </g>
                        <path d="M16.4956397,18.756512 C16.3006866,18.756512 16.103134,18.6915664 15.9419727,18.5538815 C15.57806,18.247338 15.5312713,17.7043923 15.8379976,17.3432944 C16.6308073,16.4028812 17.3456357,14.3505982 17.5535858,13.6413915 C17.6861539,13.184174 18.1644391,12.9243914 18.6219293,13.0568805 C19.0768201,13.1893697 19.339357,13.6673698 19.2067889,14.1219894 C19.172997,14.2414895 18.343796,17.0419465 17.1558812,18.4499685 C16.9843224,18.652599 16.7399811,18.756512 16.4956397,18.756512 Z" id="Path" fill="#352670"></path>
                    </g>
                </g>
                <g id="Group" transform="translate(76.871954, 21.899917)">
                    <path d="M165.624437,9.42491476 C165.624437,4.21887033 161.403051,0 156.193901,0 L9.43053593,0 C4.22138654,0 0,4.21887033 0,9.42491476 L0,106.503096 C0,111.706542 4.22138654,115.92801 9.43053593,115.92801 L156.196501,115.92801 C161.40565,115.92801 165.627036,111.70914 165.627036,106.503096 L165.627036,9.42491476 L165.624437,9.42491476 Z" id="Path" fill="#787DF2"></path>
                    <path d="M148.122839,63.612979 C148.122839,65.4418489 146.638595,66.9252079 144.808635,66.9252079 L20.8158026,66.9252079 C18.9858419,66.9252079 17.5015982,65.4418489 17.5015982,63.612979 L17.5015982,15.4414811 C17.5015982,13.6126112 18.9858419,12.1292522 20.8158026,12.1292522 L144.808635,12.1292522 C146.638595,12.1292522 148.122839,13.6126112 148.122839,15.4414811 L148.122839,63.612979 Z" id="Path" fill="#DFE1FF"></path>
                    <g transform="translate(24.590746, 31.803242)" fill="#352670" id="Path">
                        <path d="M6.09488675,12.1831571 C5.87393979,12.1831571 5.65559221,12.1000267 5.48663278,11.9311679 L0.251489623,6.69914524 C-0.0838298742,6.36402562 -0.0838298742,5.81848204 0.251489623,5.48336241 L5.48663278,0.25133972 C5.82195227,-0.0837799066 6.36782122,-0.0837799066 6.70314072,0.25133972 C7.03846022,0.586459346 7.03846022,1.13200292 6.70314072,1.46712255 L2.07625154,6.09125383 L6.70314072,10.7153851 C7.03846022,11.0505047 7.03846022,11.5960483 6.70314072,11.9311679 C6.53678066,12.0974288 6.3158337,12.1831571 6.09488675,12.1831571 Z"></path>
                        <path d="M110.348058,12.1831571 C110.127111,12.1831571 109.908763,12.1000267 109.739804,11.9311679 C109.404484,11.5960483 109.404484,11.0505047 109.739804,10.7153851 L114.366693,6.09125383 L109.739804,1.46712255 C109.404484,1.13200292 109.404484,0.586459346 109.739804,0.25133972 C110.075123,-0.0837799066 110.620992,-0.0837799066 110.956312,0.25133972 L116.191455,5.48336241 C116.526774,5.81848204 116.526774,6.36402562 116.191455,6.69914524 L110.956312,11.9311679 C110.787352,12.0974288 110.569005,12.1831571 110.348058,12.1831571 Z"></path>
                    </g>
                    <g transform="translate(66.801362, 75.303199)" fill="#352670">
                        <path d="M4.50731789,2.25231563 C4.50731789,3.49667455 3.49876002,4.50463126 2.25365894,4.50463126 C1.00855787,4.50463126 0,3.49667455 0,2.25231563 C0,1.00795671 1.00855787,0 2.25365894,0 C3.49876002,0 4.50731789,1.00795671 4.50731789,2.25231563 Z" id="Path"></path>
                        <path d="M18.2632154,2.25231563 C18.2632154,3.49667455 17.2546575,4.50463126 16.0095564,4.50463126 C14.7644554,4.50463126 13.7558975,3.49667455 13.7558975,2.25231563 C13.7558975,1.00795671 14.7644554,0 16.0095564,0 C17.2546575,0 18.2632154,1.00795671 18.2632154,2.25231563 Z" id="Path"></path>
                        <ellipse id="Oval" cx="29.7706527" cy="2.25231563" rx="2.25365894" ry="2.25231563"></ellipse>
                    </g>
                    <path d="M75.9433676,99.6993877 C75.9433676,101.528258 74.459124,103.011617 72.6291633,103.011617 L20.8158026,103.011617 C18.9858419,103.011617 17.5015982,101.528258 17.5015982,99.6993877 L17.5015982,91.8409624 C17.5015982,90.0120925 18.9858419,88.5287335 20.8158026,88.5287335 L72.6291633,88.5287335 C74.459124,88.5287335 75.9433676,90.0120925 75.9433676,91.8409624 L75.9433676,99.6993877 L75.9433676,99.6993877 Z" id="Path" fill="#DFE1FF"></path>
                    <path d="M148.122839,99.6993877 C148.122839,101.528258 146.638595,103.011617 144.808635,103.011617 L92.9952738,103.011617 C91.1653132,103.011617 89.6810695,101.528258 89.6810695,99.6993877 L89.6810695,91.8409624 C89.6810695,90.0120925 91.1653132,88.5287335 92.9952738,88.5287335 L144.808635,88.5287335 C146.638595,88.5287335 148.122839,90.0120925 148.122839,91.8409624 L148.122839,99.6993877 Z" id="Path" fill="#DFE1FF"></path>
                </g>
                <g id="Group" transform="translate(75.686638, 176.296543)">
                    <path d="M165.624437,9.42491476 C165.624437,4.21887033 161.403051,0 156.193901,0 L9.43053593,0 C4.22138654,0 0,4.21887033 0,9.42491476 L0,106.503096 C0,111.706542 4.22138654,115.92801 9.43053593,115.92801 L156.196501,115.92801 C161.40565,115.92801 165.627036,111.70914 165.627036,106.503096 L165.627036,9.42491476 L165.624437,9.42491476 Z" id="Path" fill="#787DF2"></path>
                    <g transform="translate(17.501598, 12.721557)" id="Path">
                        <path d="M39.6456819,35.9487239 C39.6456819,37.7775938 38.1614383,39.2609528 36.3314776,39.2609528 L3.31420433,39.2609528 C1.48424366,39.2609528 0,37.7775938 0,35.9487239 L0,3.31222886 C0,1.48335897 1.48424366,0 3.31420433,0 L36.3314776,0 C38.1614383,0 39.6456819,1.48335897 39.6456819,3.31222886 L39.6456819,35.9487239 Z" fill="#DFE1FF"></path>
                        <path d="M85.1321616,35.9487239 C85.1321616,37.7775938 83.6479179,39.2609528 81.8179573,39.2609528 L48.8032834,39.2609528 C46.9733227,39.2609528 45.489079,37.7775938 45.489079,35.9487239 L45.489079,3.31222886 C45.489079,1.48335897 46.9733227,0 48.8032834,0 L81.8205566,0 C83.6505173,0 85.134761,1.48335897 85.134761,3.31222886 L85.134761,35.9487239 L85.1321616,35.9487239 Z" fill="#FFFFFF"></path>
                        <path d="M130.621241,35.9487239 C130.621241,37.7775938 129.136997,39.2609528 127.307036,39.2609528 L94.289763,39.2609528 C92.4598024,39.2609528 90.9755587,37.7775938 90.9755587,35.9487239 L90.9755587,3.31222886 C90.9755587,1.48335897 92.4598024,0 94.289763,0 L127.307036,0 C129.136997,0 130.621241,1.48335897 130.621241,3.31222886 L130.621241,35.9487239 Z" fill="#DFE1FF"></path>
                        <path d="M39.6456819,51.5512703 C39.6456819,53.3801402 38.1614383,54.8634991 36.3314776,54.8634991 L3.31420433,54.8634991 C1.48424366,54.8634991 0,53.3801402 0,51.5512703 L0,51.2447267 C0,49.4158568 1.48424366,47.9324979 3.31420433,47.9324979 L36.3314776,47.9324979 C38.1614383,47.9324979 39.6456819,49.4158568 39.6456819,51.2447267 L39.6456819,51.5512703 Z" fill="#DFE1FF"></path>
                        <path d="M84.0534206,54.8634991 L46.5678201,54.8634991 C45.972563,54.8634991 45.489079,54.3803034 45.489079,53.7854011 L45.489079,49.0105959 C45.489079,48.4156936 45.972563,47.9324979 46.5678201,47.9324979 L84.0534206,47.9324979 C84.6486777,47.9324979 85.1321616,48.4156936 85.1321616,49.0105959 L85.1321616,53.7854011 C85.1321616,54.3803034 84.6486777,54.8634991 84.0534206,54.8634991 Z" fill="#FFFFFF"></path>
                        <path d="M130.621241,51.5512703 C130.621241,53.3801402 129.136997,54.8634991 127.307036,54.8634991 L94.289763,54.8634991 C92.4598024,54.8634991 90.9755587,53.3801402 90.9755587,51.5512703 L90.9755587,51.2447267 C90.9755587,49.4158568 92.4598024,47.9324979 94.289763,47.9324979 L127.307036,47.9324979 C129.136997,47.9324979 130.621241,49.4158568 130.621241,51.2447267 L130.621241,51.5512703 Z" fill="#DFE1FF"></path>
                        <path d="M35.4970779,64.3117943 L27.2180655,64.3117943 C26.7423797,64.3117943 26.3576721,63.927316 26.3576721,63.4519137 C26.3576721,62.9765115 26.7423797,62.5920332 27.2180655,62.5920332 L35.4970779,62.5920332 C35.9727637,62.5920332 36.3574713,62.9765115 36.3574713,63.4519137 C36.3574713,63.927316 35.9727637,64.3117943 35.4970779,64.3117943 Z" fill="#DFE1FF"></path>
                        <path d="M22.6821545,64.3117943 L4.14860401,64.3117943 C3.67291821,64.3117943 3.28821057,63.927316 3.28821057,63.4519137 C3.28821057,62.9765115 3.67291821,62.5920332 4.14860401,62.5920332 L22.6821545,62.5920332 C23.1578403,62.5920332 23.5425479,62.9765115 23.5425479,63.4519137 C23.5425479,63.927316 23.1578403,64.3117943 22.6821545,64.3117943 Z" fill="#DFE1FF"></path>
                        <path d="M35.4970779,69.2398713 L15.5598644,69.2398713 C15.0841786,69.2398713 14.699471,68.855393 14.699471,68.3799907 C14.699471,67.9045885 15.0841786,67.5201101 15.5598644,67.5201101 L35.4970779,67.5201101 C35.9727637,67.5201101 36.3574713,67.9045885 36.3574713,68.3799907 C36.3574713,68.855393 35.9727637,69.2398713 35.4970779,69.2398713 Z" fill="#DFE1FF"></path>
                        <path d="M10.9355746,69.2398713 L4.14860401,69.2398713 C3.67291821,69.2398713 3.28821057,68.855393 3.28821057,68.3799907 C3.28821057,67.9045885 3.67291821,67.5201101 4.14860401,67.5201101 L10.9355746,67.5201101 C11.4112604,67.5201101 11.795968,67.9045885 11.795968,68.3799907 C11.795968,68.855393 11.4112604,69.2398713 10.9355746,69.2398713 Z" fill="#DFE1FF"></path>
                        <path d="M35.4970779,74.1679483 L4.14860401,74.1679483 C3.67291821,74.1679483 3.28821057,73.78347 3.28821057,73.3080677 C3.28821057,72.8326655 3.67291821,72.4481871 4.14860401,72.4481871 L35.4970779,72.4481871 C35.9727637,72.4481871 36.3574713,72.8326655 36.3574713,73.3080677 C36.3574713,73.7808722 35.9727637,74.1679483 35.4970779,74.1679483 Z" fill="#DFE1FF"></path>
                        <path d="M80.9861569,64.3117943 L63.1466398,64.3117943 C62.670954,64.3117943 62.2862464,63.927316 62.2862464,63.4519137 C62.2862464,62.9765115 62.670954,62.5920332 63.1466398,62.5920332 L80.9861569,62.5920332 C81.4618427,62.5920332 81.8465504,62.9765115 81.8465504,63.4519137 C81.8465504,63.927316 81.4618427,64.3117943 80.9861569,64.3117943 Z" fill="#DFE1FF"></path>
                        <path d="M58.4417694,64.3117943 L49.6350837,64.3117943 C49.1593979,64.3117943 48.7746902,63.927316 48.7746902,63.4519137 C48.7746902,62.9765115 49.1593979,62.5920332 49.6350837,62.5920332 L58.4417694,62.5920332 C58.9174552,62.5920332 59.3021628,62.9765115 59.3021628,63.4519137 C59.3021628,63.927316 58.9174552,64.3117943 58.4417694,64.3117943 Z" fill="#DFE1FF"></path>
                        <path d="M80.9861569,69.2398713 L49.6376831,69.2398713 C49.1619973,69.2398713 48.7772896,68.855393 48.7772896,68.3799907 C48.7772896,67.9045885 49.1619973,67.5201101 49.6376831,67.5201101 L80.9861569,67.5201101 C81.4618427,67.5201101 81.8465504,67.9045885 81.8465504,68.3799907 C81.8465504,68.855393 81.4618427,69.2398713 80.9861569,69.2398713 Z" fill="#DFE1FF"></path>
                        <path d="M80.9861569,74.1679483 L75.2441355,74.1679483 C74.7684497,74.1679483 74.383742,73.78347 74.383742,73.3080677 C74.383742,72.8326655 74.7684497,72.4481871 75.2441355,72.4481871 L80.9861569,72.4481871 C81.4618427,72.4481871 81.8465504,72.8326655 81.8465504,73.3080677 C81.8465504,73.7808722 81.4618427,74.1679483 80.9861569,74.1679483 Z" fill="#DFE1FF"></path>
                        <path d="M70.677032,74.1679483 L49.6376831,74.1679483 C49.1619973,74.1679483 48.7772896,73.78347 48.7772896,73.3080677 C48.7772896,72.8326655 49.1619973,72.4481871 49.6376831,72.4481871 L70.677032,72.4481871 C71.1527177,72.4481871 71.5374254,72.8326655 71.5374254,73.3080677 C71.5374254,73.7808722 71.1527177,74.1679483 70.677032,74.1679483 Z" fill="#DFE1FF"></path>
                        <path d="M126.475236,64.3117943 L107.486795,64.3117943 C107.011109,64.3117943 106.626401,63.927316 106.626401,63.4519137 C106.626401,62.9765115 107.011109,62.5920332 107.486795,62.5920332 L126.475236,62.5920332 C126.950922,62.5920332 127.335629,62.9765115 127.335629,63.4519137 C127.335629,63.927316 126.950922,64.3117943 126.475236,64.3117943 Z" fill="#DFE1FF"></path>
                        <path d="M102.438807,64.3117943 L95.1241627,64.3117943 C94.6484769,64.3117943 94.2637693,63.927316 94.2637693,63.4519137 C94.2637693,62.9765115 94.6484769,62.5920332 95.1241627,62.5920332 L102.438807,62.5920332 C102.914492,62.5920332 103.2992,62.9765115 103.2992,63.4519137 C103.2992,63.927316 102.914492,64.3117943 102.438807,64.3117943 Z" fill="#DFE1FF"></path>
                        <path d="M126.475236,69.2398713 L120.559056,69.2398713 C120.083371,69.2398713 119.698663,68.855393 119.698663,68.3799907 C119.698663,67.9045885 120.083371,67.5201101 120.559056,67.5201101 L126.475236,67.5201101 C126.950922,67.5201101 127.335629,67.9045885 127.335629,68.3799907 C127.335629,68.855393 126.950922,69.2398713 126.475236,69.2398713 Z" fill="#DFE1FF"></path>
                        <path d="M115.62804,69.2398713 L95.1267621,69.2398713 C94.6510763,69.2398713 94.2663687,68.855393 94.2663687,68.3799907 C94.2663687,67.9045885 94.6510763,67.5201101 95.1267621,67.5201101 L115.62804,67.5201101 C116.103726,67.5201101 116.488434,67.9045885 116.488434,68.3799907 C116.488434,68.855393 116.101127,69.2398713 115.62804,69.2398713 Z" fill="#DFE1FF"></path>
                        <path d="M126.475236,74.1679483 L110.122562,74.1679483 C109.646876,74.1679483 109.262168,73.78347 109.262168,73.3080677 C109.262168,72.8326655 109.646876,72.4481871 110.122562,72.4481871 L126.475236,72.4481871 C126.950922,72.4481871 127.335629,72.8326655 127.335629,73.3080677 C127.335629,73.7808722 126.950922,74.1679483 126.475236,74.1679483 Z" fill="#DFE1FF"></path>
                        <path d="M105.376101,74.1679483 L95.1241627,74.1679483 C94.6484769,74.1679483 94.2637693,73.78347 94.2637693,73.3080677 C94.2637693,72.8326655 94.6484769,72.4481871 95.1241627,72.4481871 L105.376101,72.4481871 C105.851787,72.4481871 106.236495,72.8326655 106.236495,73.3080677 C106.236495,73.7808722 105.851787,74.1679483 105.376101,74.1679483 Z" fill="#DFE1FF"></path>
                    </g>
                    <g transform="translate(66.801362, 97.891300)" fill="#352670" id="Path">
                        <path d="M4.50731789,2.25231563 C4.50731789,3.49667455 3.49876002,4.50463126 2.25365894,4.50463126 C1.00855787,4.50463126 0,3.49667455 0,2.25231563 C0,1.00795671 1.00855787,0 2.25365894,0 C3.49876002,0 4.50731789,1.00795671 4.50731789,2.25231563 Z"></path>
                        <path d="M18.2658148,2.25231563 C18.2658148,3.49667455 17.2572569,4.50463126 16.0121558,4.50463126 C14.7670547,4.50463126 13.7584969,3.49667455 13.7584969,2.25231563 C13.7584969,1.00795671 14.7670547,0 16.0121558,0 C17.2572569,0 18.2658148,1.00795671 18.2658148,2.25231563 Z"></path>
                        <path d="M32.0243116,2.25231563 C32.0243116,3.49667455 31.0157538,4.50463126 29.7706527,4.50463126 C28.5255516,4.50463126 27.5169938,3.49667455 27.5169938,2.25231563 C27.5169938,1.00795671 28.5255516,0 29.7706527,0 C31.0131544,0 32.0243116,1.00795671 32.0243116,2.25231563 Z"></path>
                    </g>
                </g>
                <g id="Group" transform="translate(265.810194, 176.296543)">
                    <path d="M165.627036,9.42491476 C165.627036,4.21887033 161.40565,0 156.196501,0 L9.43053593,0 C4.22138654,0 0,4.21887033 0,9.42491476 L0,106.503096 C0,111.706542 4.22138654,115.92801 9.43053593,115.92801 L156.196501,115.92801 C161.40565,115.92801 165.627036,111.70914 165.627036,106.503096 L165.627036,9.42491476 Z" id="Path" fill="#787DF2"></path>
                    <g transform="translate(17.501598, 12.721557)">
                        <path d="M74.0250282,69.9958389 C74.0250282,71.8247088 72.5407845,73.3080677 70.7108238,73.3080677 L3.31420433,73.3080677 C1.48424366,73.3080677 0,71.8247088 0,69.9958389 L0,3.31222886 C0,1.48335897 1.48424366,0 3.31420433,0 L70.7108238,0 C72.5407845,0 74.0250282,1.48335897 74.0250282,3.31222886 L74.0250282,69.9958389 Z" id="Path" fill="#DFE1FF"></path>
                        <path d="M127.309636,1.71976118 C128.188225,1.71976118 128.903053,2.43416349 128.903053,3.31222886 L128.903053,35.9487239 C128.903053,36.8267893 128.188225,37.5411916 127.309636,37.5411916 L94.2923624,37.5411916 C93.4137733,37.5411916 92.698945,36.8267893 92.698945,35.9487239 L92.698945,3.31222886 C92.698945,2.43416349 93.4137733,1.71976118 94.2923624,1.71976118 L127.309636,1.71976118 L127.309636,1.71976118 Z M127.309636,0 L94.2923624,0 C92.4624017,0 90.9781581,1.48335897 90.9781581,3.31222886 L90.9781581,35.9487239 C90.9781581,37.7775938 92.4624017,39.2609528 94.2923624,39.2609528 L127.309636,39.2609528 C129.139596,39.2609528 130.62384,37.7775938 130.62384,35.9487239 L130.62384,3.31222886 C130.62384,1.48335897 129.139596,0 127.309636,0 L127.309636,0 Z" id="Shape" fill="#352670"></path>
                        <g transform="translate(94.266369, 49.075542)" fill="#FFFFFF" id="Path">
                            <path d="M32.2088673,1.71976118 L23.929855,1.71976118 C23.4541692,1.71976118 23.0694615,1.33528285 23.0694615,0.859880592 C23.0694615,0.384478331 23.4541692,0 23.929855,0 L32.2088673,0 C32.6845531,0 33.0692608,0.384478331 33.0692608,0.859880592 C33.0692608,1.33528285 32.6845531,1.71976118 32.2088673,1.71976118 Z"></path>
                            <path d="M19.3939439,1.71976118 L0.860393438,1.71976118 C0.38470764,1.71976118 0,1.33528285 0,0.859880592 C0,0.384478331 0.38470764,0 0.860393438,0 L19.3939439,0 C19.8696297,0 20.2543374,0.384478331 20.2543374,0.859880592 C20.2543374,1.33528285 19.8696297,1.71976118 19.3939439,1.71976118 Z"></path>
                            <path d="M32.2088673,6.64783817 L12.2716538,6.64783817 C11.795968,6.64783817 11.4112604,6.26335984 11.4112604,5.78795758 C11.4112604,5.31255532 11.795968,4.92807699 12.2716538,4.92807699 L32.2088673,4.92807699 C32.6845531,4.92807699 33.0692608,5.31255532 33.0692608,5.78795758 C33.0692608,6.26335984 32.6845531,6.64783817 32.2088673,6.64783817 Z"></path>
                            <path d="M7.64736403,6.64783817 L0.860393438,6.64783817 C0.38470764,6.64783817 0,6.26335984 0,5.78795758 C0,5.31255532 0.38470764,4.92807699 0.860393438,4.92807699 L7.64736403,4.92807699 C8.12304983,4.92807699 8.50775747,5.31255532 8.50775747,5.78795758 C8.50775747,6.26335984 8.12304983,6.64783817 7.64736403,6.64783817 Z"></path>
                            <path d="M32.2088673,16.3429269 L23.929855,16.3429269 C23.4541692,16.3429269 23.0694615,15.9584486 23.0694615,15.4830463 C23.0694615,15.007644 23.4541692,14.6231657 23.929855,14.6231657 L32.2088673,14.6231657 C32.6845531,14.6231657 33.0692608,15.007644 33.0692608,15.4830463 C33.0692608,15.9584486 32.6845531,16.3429269 32.2088673,16.3429269 Z"></path>
                            <path d="M19.3939439,16.3429269 L0.860393438,16.3429269 C0.38470764,16.3429269 0,15.9584486 0,15.4830463 C0,15.007644 0.38470764,14.6231657 0.860393438,14.6231657 L19.3939439,14.6231657 C19.8696297,14.6231657 20.2543374,15.007644 20.2543374,15.4830463 C20.2543374,15.9584486 19.8696297,16.3429269 19.3939439,16.3429269 Z"></path>
                            <path d="M32.2088673,21.2710039 L12.2716538,21.2710039 C11.795968,21.2710039 11.4112604,20.8865255 11.4112604,20.4111233 C11.4112604,19.935721 11.795968,19.5512427 12.2716538,19.5512427 L32.2088673,19.5512427 C32.6845531,19.5512427 33.0692608,19.935721 33.0692608,20.4111233 C33.0692608,20.8865255 32.6845531,21.2710039 32.2088673,21.2710039 Z"></path>
                            <path d="M7.64736403,21.2710039 L0.860393438,21.2710039 C0.38470764,21.2710039 0,20.8865255 0,20.4111233 C0,19.935721 0.38470764,19.5512427 0.860393438,19.5512427 L7.64736403,19.5512427 C8.12304983,19.5512427 8.50775747,19.935721 8.50775747,20.4111233 C8.50775747,20.8865255 8.12304983,21.2710039 7.64736403,21.2710039 Z"></path>
                            <path d="M32.2088673,11.5759152 L0.860393438,11.5759152 C0.38470764,11.5759152 0,11.1914368 0,10.7160346 C0,10.2406323 0.38470764,9.85615397 0.860393438,9.85615397 L32.2088673,9.85615397 C32.6845531,9.85615397 33.0692608,10.2406323 33.0692608,10.7160346 C33.0692608,11.1914368 32.6845531,11.5759152 32.2088673,11.5759152 Z"></path>
                        </g>
                    </g>
                    <g transform="translate(66.801362, 97.891300)" fill="#352670" id="Path">
                        <path d="M4.50731789,2.25231563 C4.50731789,3.49667455 3.49876002,4.50463126 2.25365894,4.50463126 C1.00855787,4.50463126 0,3.49667455 0,2.25231563 C0,1.00795671 1.00855787,0 2.25365894,0 C3.49876002,0 4.50731789,1.00795671 4.50731789,2.25231563 Z"></path>
                        <path d="M18.2658148,2.25231563 C18.2658148,3.49667455 17.2572569,4.50463126 16.0121558,4.50463126 C14.7670547,4.50463126 13.7584969,3.49667455 13.7584969,2.25231563 C13.7584969,1.00795671 14.7670547,0 16.0121558,0 C17.2572569,0 18.2658148,1.00795671 18.2658148,2.25231563 Z"></path>
                        <path d="M32.0243116,2.25231563 C32.0243116,3.49667455 31.0157538,4.50463126 29.7706527,4.50463126 C28.5255516,4.50463126 27.5169938,3.49667455 27.5169938,2.25231563 C27.5169938,1.00795671 28.5255516,0 29.7706527,0 C31.0157538,0 32.0243116,1.00795671 32.0243116,2.25231563 Z"></path>
                    </g>
                </g>
                <g id="Group" transform="translate(24.000000, 317.717025)">
                    <path d="M407.43723,9.42491476 C407.43723,4.21887033 403.215844,0 398.006694,0 L251.24073,0 C246.03158,0 241.810194,4.21887033 241.810194,9.42491476 L241.810194,106.503096 C241.810194,111.706542 246.03158,115.92801 251.24073,115.92801 L398.006694,115.92801 C403.215844,115.92801 407.43723,111.70914 407.43723,106.503096 L407.43723,9.42491476 Z" id="Path" fill="#787DF2"></path>
                    <g transform="translate(306.433279, 23.409015)" id="Path">
                        <path d="M39.6430825,35.9487239 C39.6430825,37.7775938 38.1588389,39.2609528 36.3288782,39.2609528 L3.31420433,39.2609528 C1.48424366,39.2609528 0,37.7775938 0,35.9487239 L0,3.31222886 C0,1.48335897 1.48424366,0 3.31420433,0 L36.3288782,0 C38.1588389,0 39.6430825,1.48335897 39.6430825,3.31222886 L39.6430825,35.9487239 Z" fill="#FFFFFF"></path>
                        <g transform="translate(3.285611, 49.075542)" fill="#FFFFFF">
                            <path d="M32.2088673,1.71976118 L23.929855,1.71976118 C23.4541692,1.71976118 23.0694615,1.33528285 23.0694615,0.859880592 C23.0694615,0.384478331 23.4541692,0 23.929855,0 L32.2088673,0 C32.6845531,0 33.0692608,0.384478331 33.0692608,0.859880592 C33.0692608,1.33528285 32.6845531,1.71976118 32.2088673,1.71976118 Z"></path>
                            <path d="M19.3939439,1.71976118 L0.860393438,1.71976118 C0.38470764,1.71976118 0,1.33528285 0,0.859880592 C0,0.384478331 0.38470764,0 0.860393438,0 L19.3939439,0 C19.8696297,0 20.2543374,0.384478331 20.2543374,0.859880592 C20.2543374,1.33528285 19.8696297,1.71976118 19.3939439,1.71976118 Z"></path>
                        </g>
                        <g transform="translate(6.261897, 63.449316)">
                            <path d="M29.3807463,3.63955501 C29.3807463,5.65027277 27.7509376,7.27911002 25.7390206,7.27911002 L3.6417257,7.27911002 C1.62980872,7.27911002 0,5.65027277 0,3.63955501 C0,1.62883725 1.62980872,0 3.6417257,0 L25.7390206,0 C27.7509376,0 29.3807463,1.62883725 29.3807463,3.63955501 Z" fill="#DFE1FF"></path>
                            <g transform="translate(3.160841, 2.325055)">
                                <path d="M2.63056846,1.31450024 C2.63056846,2.03929385 2.04051012,2.62900048 1.31528423,2.62900048 C0.59005834,2.62900048 0,2.03929385 0,1.31450024 C0,0.589706629 0.59005834,0 1.31528423,0 C2.04310949,0 2.63056846,0.589706629 2.63056846,1.31450024 Z" fill="#787DF2"></path>
                                <path d="M7.53299149,1.31450024 C7.53299149,2.03929385 6.94293315,2.62900048 6.21770726,2.62900048 C5.49248137,2.62900048 4.90242303,2.03929385 4.90242303,1.31450024 C4.90242303,0.589706629 5.49248137,0 6.21770726,0 C6.94553253,0 7.53299149,0.589706629 7.53299149,1.31450024 Z" fill="#787DF2"></path>
                                <path d="M12.4354145,1.31450024 C12.4354145,2.03929385 11.8453562,2.62900048 11.1201303,2.62900048 C10.3949044,2.62900048 9.80484607,2.03929385 9.80484607,1.31450024 C9.80484607,0.589706629 10.3949044,0 11.1201303,0 C11.8453562,0 12.4354145,0.589706629 12.4354145,1.31450024 Z" fill="#787DF2"></path>
                                <path d="M17.3378376,1.31450024 C17.3378376,2.03929385 16.7477792,2.62900048 16.0225533,2.62900048 C15.2973274,2.62900048 14.7072691,2.03929385 14.7072691,1.31450024 C14.7072691,0.589706629 15.2973274,0 16.0225533,0 C16.7477792,0 17.3378376,0.589706629 17.3378376,1.31450024 Z" fill="#352670"></path>
                                <path d="M22.2402606,1.31450024 C22.2402606,2.03929385 21.6502022,2.62900048 20.9249764,2.62900048 C20.1997505,2.62900048 19.6096921,2.03929385 19.6096921,1.31450024 C19.6096921,0.589706629 20.1997505,0 20.9249764,0 C21.6528016,0 22.2402606,0.589706629 22.2402606,1.31450024 Z" fill="#787DF2"></path>
                            </g>
                        </g>
                    </g>
                    <g transform="translate(359.096636, 23.699972)" fill="#352670" id="Path">
                        <path d="M32.2114667,1.71976118 L16.8101642,1.71976118 C16.3344784,1.71976118 15.9497708,1.33528285 15.9497708,0.859880592 C15.9497708,0.384478331 16.3344784,0 16.8101642,0 L32.2114667,0 C32.6871525,0 33.0718602,0.384478331 33.0718602,0.859880592 C33.0718602,1.33528285 32.6871525,1.71976118 32.2114667,1.71976118 Z"></path>
                        <path d="M12.2742532,1.71976118 L0.862992814,1.71976118 C0.387307016,1.71976118 0.00259937595,1.33528285 0.00259937595,0.859880592 C0.00259937595,0.384478331 0.387307016,0 0.862992814,0 L12.2742532,0 C12.749939,0 13.1346467,0.384478331 13.1346467,0.859880592 C13.1346467,1.33528285 12.749939,1.71976118 12.2742532,1.71976118 Z"></path>
                        <path d="M32.2114667,6.64783817 L24.5563046,6.64783817 C24.0806188,6.64783817 23.6959111,6.26335984 23.6959111,5.78795758 C23.6959111,5.31255532 24.0806188,4.92807699 24.5563046,4.92807699 L32.2114667,4.92807699 C32.6871525,4.92807699 33.0718602,5.31255532 33.0718602,5.78795758 C33.0718602,6.26335984 32.6871525,6.64783817 32.2114667,6.64783817 Z"></path>
                        <path d="M19.9294154,6.64783817 L0.860393438,6.64783817 C0.38470764,6.64783817 0,6.26335984 0,5.78795758 C0,5.31255532 0.38470764,4.92807699 0.860393438,4.92807699 L19.9294154,4.92807699 C20.4051012,4.92807699 20.7898088,5.31255532 20.7898088,5.78795758 C20.7898088,6.26335984 20.4051012,6.64783817 19.9294154,6.64783817 Z"></path>
                        <path d="M32.2114667,11.5759152 L0.862992814,11.5759152 C0.387307016,11.5759152 0.00259937595,11.1914368 0.00259937595,10.7160346 C0.00259937595,10.2406323 0.387307016,9.85615397 0.862992814,9.85615397 L32.2114667,9.85615397 C32.6871525,9.85615397 33.0718602,10.2406323 33.0718602,10.7160346 C33.0718602,11.1914368 32.6871525,11.5759152 32.2114667,11.5759152 Z"></path>
                    </g>
                    <g transform="translate(260.746647, 23.699972)" fill="#352670" id="Path">
                        <path d="M32.2114667,1.71976118 L16.8101642,1.71976118 C16.3344784,1.71976118 15.9497708,1.33528285 15.9497708,0.859880592 C15.9497708,0.384478331 16.3344784,0 16.8101642,0 L32.2114667,0 C32.6871525,0 33.0718602,0.384478331 33.0718602,0.859880592 C33.0718602,1.33528285 32.6871525,1.71976118 32.2114667,1.71976118 Z"></path>
                        <path d="M12.2742532,1.71976118 L0.862992814,1.71976118 C0.387307016,1.71976118 0.00259937595,1.33528285 0.00259937595,0.859880592 C0.00259937595,0.384478331 0.387307016,0 0.862992814,0 L12.2742532,0 C12.749939,0 13.1346467,0.384478331 13.1346467,0.859880592 C13.1346467,1.33528285 12.749939,1.71976118 12.2742532,1.71976118 Z"></path>
                        <path d="M32.2114667,6.64783817 L22.8355177,6.64783817 C22.3598319,6.64783817 21.9751242,6.26335984 21.9751242,5.78795758 C21.9751242,5.31255532 22.3598319,4.92807699 22.8355177,4.92807699 L32.2114667,4.92807699 C32.6871525,4.92807699 33.0718602,5.31255532 33.0718602,5.78795758 C33.0718602,6.26335984 32.6871525,6.64783817 32.2114667,6.64783817 Z"></path>
                        <path d="M18.2086285,6.64783817 L0.860393438,6.64783817 C0.38470764,6.64783817 0,6.26335984 0,5.78795758 C0,5.31255532 0.38470764,4.92807699 0.860393438,4.92807699 L18.2086285,4.92807699 C18.6843143,4.92807699 19.0690219,5.31255532 19.0690219,5.78795758 C19.0690219,6.26335984 18.6843143,6.64783817 18.2086285,6.64783817 Z"></path>
                    </g>
                </g>
                <g id="Group" transform="translate(2.229674, 293.819075)">
                    <g transform="translate(143.941642, 98.694572)" id="Path">
                        <path d="M137.769524,75.3317746 L74.8178378,75.3317746 L118.313196,3.60058761 C119.672669,1.35866329 122.152474,0 124.884418,0 L175.972553,0 C179.216574,0 181.342863,3.47069629 179.728651,6.13346851 L137.769524,75.3317746 Z" fill="#352670"></path>
                        <path d="M136.669988,38.4322461 C134.764646,41.5756163 130.478275,44.1240841 127.096487,44.1240841 C123.714699,44.1240841 122.518986,41.5756163 124.426928,38.4322461 C126.33227,35.288876 130.618641,32.7404081 134.000429,32.7404081 C137.382217,32.7404081 138.57793,35.288876 136.669988,38.4322461 Z" fill="#DFE1FF"></path>
                        <path d="M136.825951,82.4082542 L2.39402525,82.4082542 C1.07354227,82.4082542 0,81.3379496 0,80.0156559 L0,74.7238832 L139.219976,74.7238832 L139.219976,80.0156559 C139.219976,81.3379496 138.149033,82.4082542 136.825951,82.4082542 Z" fill="#352670"></path>
                        <path d="M135.08177,76.2669922 L71.1995065,76.2669922 C70.7238207,76.2669922 70.3391131,75.8825138 70.3391131,75.4071116 C70.3391131,74.9317093 70.7238207,74.547231 71.1995065,74.547231 L135.08177,74.547231 C135.557456,74.547231 135.942163,74.9317093 135.942163,75.4071116 C135.942163,75.8825138 135.557456,76.2669922 135.08177,76.2669922 Z" fill="#FFFFFF"></path>
                    </g>
                    <g>
                        <g transform="translate(67.396418, 2.553152)">
                            <path d="M25.2127481,44.8681171 C15.1167719,47.1438132 6.09953678,40.2517793 2.70215242,36.3966047 C0.159962743,33.5104194 -0.0193941973,31.4867125 0.00140081022,30.5411036 C0.0715839607,27.3353856 2.72294742,25.0363091 3.76789655,24.0725155 C13.4401744,15.1723617 10.2143489,6.37612095 18.7117089,1.67145705 C23.2372224,-0.832847759 27.8693103,-0.0327171784 33.95185,0.925880822 C38.0120753,1.56754398 51.762774,3.73932699 53.691511,11.1613175 C54.7364601,15.1905465 50.6294461,20.0900474 42.3712287,29.7227882 C34.3833464,39.0411921 30.2841306,43.7224756 25.2127481,44.8681171 Z" id="Path" fill="#352670"></path>
                            <g transform="translate(0.636167, 18.395413)">
                                <path d="M42.8995822,0.860732506 C42.8995822,0.860732506 26.4923213,1.56993916 22.0343915,3.76250477 C17.5764618,5.95247257 22.6608411,17.4972138 22.6608411,17.4972138 C22.6608411,17.4972138 15.7127092,14.1382241 14.3818288,18.7467684 C13.0509483,23.3527149 21.961609,24.129465 21.961609,24.129465 L0.85727571,51.7599483 L32.7672148,51.5027635 L38.6418045,35.1130757 C38.6418045,35.1130757 44.0407083,37.7784458 46.9935994,35.5183367 C49.9464904,33.2608254 51.1084115,22.5240082 51.1084115,22.5240082 L51.1084115,22.5240082 C52.7928071,21.4874754 53.2009091,19.2195728 51.9870006,17.658279 L49.8217204,14.8812025 C48.5012374,13.1874195 47.6304465,11.1896909 47.2873288,9.07246226 L47.2873288,9.07246226 C46.8272393,6.24602697 45.5275513,3.62481997 43.554625,1.55175437 L42.8995822,0.860732506 Z" id="Path" fill="#FFFFFF"></path>
                                <path d="M0.859875086,52.6172311 C0.534953093,52.6172311 0.23602486,52.4327854 0.0904598066,52.1418288 C-0.0551052463,51.8482744 -0.023912735,51.4975678 0.176239213,51.2351873 L20.3837878,24.7763238 C18.4810446,24.4386064 15.3539954,23.6073019 14.0231149,21.6667254 C13.3888671,20.7418992 13.2277058,19.6482142 13.5578266,18.5051705 C13.9217392,17.2478225 14.6625614,16.3645614 15.7620974,15.8735722 C17.4360955,15.127996 19.6013757,15.5254634 21.1350075,15.99567 C19.804127,12.4054737 17.6388468,4.96529847 21.657482,2.99095029 C26.2245856,0.746428138 42.1873532,0.0320258335 42.8657904,0.000401549128 C43.1101317,-0.00694156495 43.354473,0.0865801912 43.5260319,0.26842805 L44.1810746,0.956852089 C46.2813704,3.16760249 47.6486421,5.92389647 48.1373248,8.93217963 C48.457048,10.90393 49.2758514,12.7769629 50.5027569,14.3512458 L52.6680371,17.1283224 C53.3984617,18.06354 53.6947905,19.2715293 53.4842411,20.4379535 C53.2996854,21.4614971 52.7382202,22.3759321 51.9220162,23.0046061 C51.6594792,25.1919761 50.4403719,33.9648364 47.5186733,36.1989672 C44.9218967,38.1837067 40.913659,36.9601304 39.1460834,36.2639129 L33.5808195,51.7911222 C33.4586488,52.1314375 33.1389256,52.3574484 32.7776123,52.3600462 L0.867673214,52.6146332 C0.865073838,52.6172311 0.862474462,52.6172311 0.859875086,52.6172311 Z M17.9429738,17.1776811 C17.4023036,17.1776811 16.8902265,17.2556159 16.4587301,17.4478551 C15.8374793,17.7258225 15.4293773,18.2272031 15.2084303,18.9857684 C15.0186759,19.6456164 15.0914584,20.1911599 15.4397748,20.6977361 C16.6380871,22.4434756 20.6073341,23.1474866 22.0369909,23.2721822 C22.348916,23.2981605 22.6218505,23.4955953 22.7492199,23.7813563 C22.8765893,24.069715 22.8375987,24.4022368 22.6452449,24.6516281 L2.60665572,50.8870786 L32.1589608,50.6506764 L37.8307992,34.824717 C37.9139792,34.5935104 38.0907367,34.4090647 38.3168825,34.3181408 C38.5430282,34.2272169 38.8003664,34.2350103 39.018714,34.344119 C40.3885851,35.0169561 44.3994222,36.4197825 46.465926,34.8377061 C48.6468025,33.1699014 49.9360929,25.3192696 50.248018,22.4330843 C50.2766112,22.168106 50.4247756,21.9317037 50.6509213,21.7940189 C51.2539765,21.4225297 51.6542804,20.8328231 51.7816499,20.1366056 C51.9064199,19.4403881 51.7374605,18.7467684 51.3007653,18.1882357 L49.1354851,15.4111591 C47.7318221,13.6108653 46.7960468,11.4676584 46.4295348,9.2127449 C45.995439,6.54737485 44.7841298,4.10541788 42.9229766,2.14665665 L42.538269,1.74139571 C40.0402687,1.86609139 26.2791725,2.63245022 22.4061023,4.53665709 C19.3752299,6.02780954 22.2085497,14.3538437 23.4406539,17.1517029 C23.586219,17.4816268 23.5082377,17.8661052 23.2508995,18.1154965 C22.9909619,18.3648879 22.6036549,18.4298335 22.2787329,18.2713661 C21.5145163,17.8998769 19.5935775,17.1776811 17.9429738,17.1776811 Z" id="Shape" fill="#352670"></path>
                            </g>
                            <path d="M39.2779713,54.3683688 C39.1480025,54.3683688 39.0180337,54.3397927 38.8958631,54.2774449 C34.5003184,52.0874771 32.4624076,49.063607 32.3766282,48.9363135 C32.1140912,48.5414439 32.223265,48.0062916 32.6183702,47.7465089 C33.0134753,47.4841284 33.5463474,47.5906393 33.8088844,47.985509 L33.8088844,47.985509 C33.82708,48.0140851 35.70123,50.7677812 39.662679,52.7395316 C40.0889766,52.9525534 40.2605355,53.466923 40.0473866,53.8929666 C39.8992222,54.1943145 39.5950952,54.3683688 39.2779713,54.3683688 Z" id="Path" fill="#352670"></path>
                        </g>
                        <g>
                            <path d="M217.50918,54.3834447 L196.381453,57.4748583 C196.381453,57.4748583 187.81131,90.3711361 166.311872,91.4518319 C155.968955,91.9713972 148.142234,88.7526901 142.805715,85.2716025 C134.724255,80.0032103 125.501669,76.7455358 115.886578,75.9531987 L77.2520532,72.773459 C55.9007792,71.0173282 35.5476655,82.1282324 25.511475,101.043008 C14.7812511,121.269685 8.88586646,148.248114 0.39630462,172.252031 C-1.1685197,176.678728 2.09369711,181.321044 6.79076945,181.321044 L101.909733,181.321044 L124.467118,124.867675 C135.706819,129.650274 153.023862,133.871742 177.354021,131.629818 C228.787873,126.896578 217.50918,54.3834447 217.50918,54.3834447 Z" id="Path" fill="#F62958"></path>
                            <path d="M101.909733,182.180925 C101.803159,182.180925 101.696585,182.160142 101.59001,182.118577 C101.148116,181.941925 100.934967,181.443142 101.109126,181.001511 L123.66651,124.548142 C123.752289,124.332523 123.921249,124.163664 124.134398,124.07274 C124.347547,123.984414 124.589289,123.984414 124.802437,124.075338 C134.963398,128.398121 152.316832,133.071611 177.27344,130.772535 C189.194178,129.676252 198.653307,124.742979 205.38829,116.107804 C221.169102,95.8863219 217.519578,61.1975438 216.770958,55.3550319 L197.05989,58.2386193 C195.788795,62.7458484 186.93792,91.2699841 166.353462,92.303919 C157.525981,92.7455496 149.444521,90.6205274 142.335228,85.983407 C134.300557,80.7435908 125.129959,77.5690468 115.816395,76.8026879 L77.18187,73.6229482 C56.1373224,71.8850023 36.1559195,82.808863 26.2704928,101.440475 C19.1923921,114.780314 14.1106121,131.466154 9.19779157,147.601255 C8.17103807,150.975832 7.1416852,154.353006 6.09153732,157.714594 C5.94857164,158.166616 5.46768709,158.421203 5.0127963,158.278322 C4.55790551,158.13804 4.30576604,157.654844 4.44873172,157.200224 C5.49628022,153.843832 6.5256331,150.469256 7.54978722,147.099875 C12.4860021,130.886839 17.5937759,114.120466 24.7472585,100.635149 C34.9524084,81.3982431 55.5914534,70.1184802 77.319637,71.9109805 L115.954162,75.0907202 C125.551058,75.8804595 134.999789,79.1511232 143.273603,84.5468089 C150.070971,88.978701 157.806714,91.0076036 166.265083,90.5893535 C186.893731,89.5528207 195.461274,57.5787714 195.544454,57.2540431 C195.630233,56.9189235 195.910966,56.6695321 196.251484,56.6201734 L217.379212,53.5287598 C217.847099,53.4586185 218.281195,53.780749 218.353978,54.2483577 C218.416363,54.648423 224.38193,94.566626 206.742565,117.167717 C199.700856,126.189969 189.838824,131.344057 177.426803,132.4871 C152.761325,134.755003 135.379298,130.29973 124.935006,125.99773 L102.702543,181.637979 C102.572574,181.978294 102.250252,182.180925 101.909733,182.180925 Z" id="Path" fill="#352670"></path>
                            <g transform="translate(56.180275, 105.154166)">
                                <path d="M72.4952321,30.9595006 C56.5220669,25.6729235 47.8947381,0.861082061 47.8947381,0.861082061 L0.86422914,10.327562 C0.86422914,10.327562 33.4630029,62.3152672 55.9268098,67.0770833 C69.9270486,70.0438012 98.0574951,56.8442444 117.269483,46.4737208 C114.807874,41.0312742 111.267524,33.2222075 108.639555,27.478413 C94.5899276,30.8893593 79.747491,33.3598923 72.4952321,30.9595006 Z" id="Path" fill="#F62958"></path>
                                <path d="M60.3821402,68.3578118 C58.7133408,68.3578118 57.1615134,68.2175291 55.7448535,67.9161812 C33.1822703,63.1361804 1.46988374,12.9175951 0.131205124,10.7821817 C-0.120934343,10.3795186 0.00123632639,9.84956196 0.404139598,9.59757278 C0.807042869,9.34818143 1.33731556,9.46768146 1.58945503,9.87034457 C1.91437702,10.3873121 34.2506138,61.6034627 56.100968,66.2327896 C66.5452605,68.4487357 87.8549445,61.2969192 116.151751,46.0944381 C113.770723,40.8338394 110.594285,33.8275011 108.148273,28.4785762 C90.506308,32.7156313 78.4218092,33.8249033 72.224897,31.7726203 C56.0359836,26.4159019 47.4398473,2.17038665 47.0811334,1.14164733 C46.9251709,0.692223334 47.1617141,0.203831941 47.6114061,0.0479623472 C48.0610982,-0.107907246 48.5497809,0.128494971 48.7057434,0.577918966 C48.7915228,0.822114662 57.3850597,25.052043 72.7655672,30.1411852 C78.6505543,32.0869573 90.9845932,30.878968 108.434204,26.639315 C108.834508,26.5457933 109.247809,26.7432281 109.419367,27.1173151 C112.013545,32.7883705 115.546096,40.5792523 118.051895,46.1152207 C118.23905,46.5256773 118.075289,47.0114709 117.677585,47.2270905 C99.2298137,57.1871576 75.2219774,68.3578118 60.3821402,68.3578118 Z" id="Path" fill="#352670"></path>
                                <g transform="translate(107.773916, 18.277508)">
                                    <path d="M60.5811022,14.6875149 L38.8113287,2.59982791 C35.4503356,0.734588442 31.4680916,0.339718805 27.8081703,1.51913206 C21.7386274,3.47529546 11.5308781,6.6082743 0.863039231,9.19830738 C3.49100831,14.9421019 7.03135835,22.7511685 9.49296737,28.1936152 C21.1069791,21.9250597 29.4613734,16.693037 29.4613734,16.693037 L43.5161991,24.091647 C43.5161991,24.091647 42.733787,36.4209319 45.5229173,36.7586494 C48.3146471,37.0963668 49.3621956,25.7230821 49.3621956,25.7230821 C49.3621956,25.7230821 51.7614196,39.8422695 55.9048249,36.7586494 L57.495643,19.703918 C57.495643,19.703918 60.2483821,27.2583976 61.8262033,27.5701368 C63.4040245,27.881876 63.4040245,27.881876 63.4040245,27.881876 L60.5811022,14.6875149 Z" id="Path" fill="#FFFFFF"></path>
                                    <path d="M54.7351057,38.0601605 C54.3789912,38.0601605 54.0644667,37.9796278 53.8097279,37.8783126 C51.8186059,37.0807799 50.422741,33.573714 49.5571488,30.503083 C49.0502705,33.1632574 48.2158708,36.1013992 46.9161829,37.1509212 C46.3417208,37.6159321 45.7828549,37.6600952 45.4163429,37.6159321 C42.3126881,37.2392473 42.38807,28.7937131 42.6220138,24.5982232 L29.4951653,17.6880046 C27.6522077,18.8258526 19.9502568,23.5331143 9.90106939,28.9573762 C9.69051994,29.0716806 9.44357923,29.0924632 9.21743352,29.0145284 C8.99128781,28.9391914 8.80673212,28.7703327 8.70795583,28.5547131 C6.20215742,23.0187447 2.67220489,15.2304607 0.0780276958,9.5620031 C-0.028546718,9.3281987 -0.025947342,9.06062257 0.0858258236,8.82941601 C0.197598989,8.59820944 0.408148441,8.42935071 0.657688532,8.3696007 C11.0837854,5.83671981 21.0315972,2.80505621 27.5404346,0.70601235 C31.408306,-0.5409444 35.6660838,-0.122694323 39.2246294,1.85425169 L60.994403,13.9419387 C61.2101512,14.0640365 61.3661137,14.2718626 61.4181013,14.5134605 L64.2436229,27.7078216 C64.3034086,27.9909847 64.2176291,28.2845391 64.0148778,28.4897674 C63.8121265,28.6949957 63.5209964,28.7833218 63.235065,28.7287675 L61.6572438,28.4170283 C60.4511334,28.1780282 59.1020573,25.7880278 58.0181175,23.3382773 L56.7600196,36.8417798 C56.7366252,37.0859755 56.6118551,37.3067908 56.4169019,37.4522691 C55.8034492,37.9094865 55.2289871,38.0601605 54.7351057,38.0601605 Z M49.3621956,24.8657994 C49.7806951,24.8657994 50.139409,25.1671472 50.2095922,25.5827995 C50.893228,29.5938437 52.6582043,35.5688448 54.4491743,36.2858449 C54.5999381,36.3455949 54.8000901,36.3871602 55.0860214,36.2572688 L56.6352495,19.628581 C56.6716408,19.2285157 56.9835659,18.9063852 57.3812704,18.8570265 C57.7789749,18.8024722 58.1610832,19.0362766 58.2988501,19.4155592 C59.63233,23.073299 61.34012,26.429691 62.0263552,26.744028 L62.2862928,26.7959845 L59.8142863,15.2564389 L38.385031,3.35839327 C35.2423855,1.61265382 31.4784891,1.24376245 28.0629091,2.34524091 C21.7360281,4.38453476 12.1755233,7.30449181 2.06914967,9.79580749 C4.47877117,15.0719932 7.55643229,21.8575162 9.88807251,27.0090063 C20.9224234,21.0210161 28.9155044,16.0253956 28.9960851,15.973439 C29.2560227,15.8123738 29.5835441,15.7993847 29.8538791,15.9422651 L43.9087049,23.3408752 C44.2076331,23.4993426 44.3869901,23.8188753 44.3661951,24.1565927 C43.9554937,30.6433656 44.7015145,35.805247 45.6190943,35.9169536 C45.6372899,35.9169536 45.6996749,35.9273449 45.8296437,35.820834 C47.1917167,34.7219533 48.1872777,29.0041371 48.4966034,25.6555386 C48.5355941,25.2268973 48.8891092,24.8917776 49.3206056,24.8761907 C49.3414006,24.8657994 49.3517981,24.8657994 49.3621956,24.8657994 Z" id="Shape" fill="#352670"></path>
                                </g>
                            </g>
                            <g transform="translate(40.235406, 56.382393)">
                                <path d="M73.3481251,21.3451208 L74.3072948,15.5259893 C74.6270181,13.582815 73.3663207,11.7331625 71.4375838,11.3279016 C61.8250915,9.30419467 35.1840875,3.53442188 31.71652,1.09246491 C27.4743384,-1.89763346 -3.25028526,27.0343609 1.35580891,26.2757956 C35.6519751,20.6255228 73.3481251,21.3451208 73.3481251,21.3451208 Z" id="Path" fill="#F62958"></path>
                                <path d="M1.19204823,27.1486653 C0.477219844,27.1486653 0.199086618,26.6706652 0.123704716,26.5096 C-0.133633503,25.9484694 -0.520940519,25.0989802 5.0859134,19.3577835 C8.31173894,16.0559459 12.5981099,12.1280321 16.5491613,8.85477068 C29.2627091,-1.68461168 31.4799767,-0.123317918 32.207802,0.391051741 C34.8929574,2.28226948 54.3232925,6.84665074 71.611742,10.4888036 C73.9927703,10.9901841 75.5497965,13.2658802 75.152092,15.6688697 L74.1929223,21.4854034 C74.1227391,21.9062513 73.7666246,22.1946101 73.3273301,22.2050014 C72.9504206,22.1946101 35.3140563,21.5529469 1.49097646,27.1252849 C1.38440205,27.1408718 1.28562576,27.1486653 1.19204823,27.1486653 Z M30.8977165,1.73412807 C30.6325802,1.73412807 30.17509,1.80686722 29.4160722,2.10561727 C21.940267,5.0619439 5.06771776,21.0100012 2.15901608,25.2704367 C33.265748,20.2644249 67.1928029,20.412501 72.6151011,20.4748489 L73.4546995,15.3857066 C73.7016402,13.8945542 72.7346724,12.4813366 71.2556275,12.1695974 C57.7700651,9.33017294 34.6356191,4.20466113 31.2148404,1.79387808 C31.212241,1.78868243 31.129061,1.73412807 30.8977165,1.73412807 Z" id="Shape" fill="#352670"></path>
                            </g>
                            <g transform="translate(195.520395, 0.000000)">
                                <path d="M11.3963284,19.6427101 C11.9837873,18.4736882 14.9184828,14.9822093 16.2571614,13.9794482 L30.3769715,0.857826271 C30.3769715,0.857826271 32.2121309,7.18093612 29.9870651,10.9088172 C34.3202248,11.0516977 37.7514011,11.7894804 37.7514011,11.7894804 C37.7514011,11.7894804 44.2004528,6.11063158 45.8094665,5.12865314 C47.4158808,4.14927252 49.5135772,2.59837007 51.6736586,2.62694616 C53.8389388,2.65552225 55.9860233,4.31033777 55.9860233,4.31033777 L43.5818013,20.019395 L21.0296156,26.2230048 L22.2929123,60.400011 L0.863657027,57.4722605 L11.3963284,19.6427101 Z" id="Path" fill="#FFFFFF"></path>
                                <path d="M22.2903129,61.2624895 C22.2513223,61.2624895 22.2123317,61.2598916 22.173341,61.254696 L0.744085733,58.3269454 C0.497145018,58.2931737 0.278797439,58.1554889 0.141030514,57.9476628 C0.00586296478,57.7398366 -0.0357270503,57.4826518 0.0318567242,57.2436518 L10.5671274,19.4115036 C10.5827237,19.359547 10.6009193,19.3049927 10.6269131,19.255634 C11.2611608,17.9956881 14.2244494,14.447057 15.7034943,13.3196003 L29.7895125,0.229152244 C30.0078601,0.026521772 30.3171859,-0.0488151982 30.6057166,0.0317174252 C30.8942473,0.112250049 31.120393,0.333065306 31.2035731,0.621424054 C31.2737562,0.868217578 32.7735961,6.1418055 31.3127468,10.1112845 C34.2396442,10.2879367 36.5738838,10.688002 37.501861,10.8646542 C38.843139,9.69043658 43.8989252,5.28712056 45.3597745,4.39866387 C45.5807214,4.26357689 45.8094665,4.11809861 46.0460097,3.97002249 C47.5978371,2.98804405 49.5239747,1.76966339 51.6112736,1.76966339 C51.634668,1.76966339 51.6580624,1.76966339 51.6814568,1.76966339 C54.1066745,1.80083731 56.4097216,3.55696807 56.5084979,3.63230504 C56.6904542,3.77258767 56.8074261,3.9804138 56.8360193,4.20642471 C56.8646124,4.43503345 56.799628,4.66364218 56.6566623,4.84289222 L44.2524403,20.5519494 C44.1380678,20.6974277 43.9821052,20.798743 43.8053476,20.8481017 L21.9082047,26.8698636 L23.1455076,60.3662393 C23.1559051,60.6208263 23.0519301,60.865022 22.8621757,61.0364786 C22.7088125,61.1819568 22.5034618,61.2624895 22.2903129,61.2624895 Z M1.95539492,56.7552604 L21.3961276,59.4102391 L20.1718215,26.2541787 C20.1562253,25.8567113 20.4187623,25.4982112 20.8034699,25.3942981 L43.0853205,19.2660253 L54.7331241,4.51037042 C54.0001001,4.07653338 52.8147847,3.49981588 51.6632611,3.48422892 C51.6476649,3.48422892 51.6320686,3.48422892 51.6164724,3.48422892 C50.0256543,3.48422892 48.3334605,4.55453347 46.9687882,5.41701189 C46.7244468,5.57288148 46.4853042,5.72355542 46.2591585,5.86124023 C44.9932624,6.63279472 40.1012369,10.867252 38.3232638,12.4311436 C38.1179131,12.6129915 37.8423792,12.6857306 37.5746435,12.6259806 C37.5408516,12.6181871 34.1616629,11.901187 29.9636707,11.7635022 C29.6595437,11.7531109 29.3840099,11.5842521 29.2384448,11.316676 C29.0928798,11.0490999 29.0980785,10.7243715 29.2540411,10.4645889 C30.6603035,8.11095803 30.2522015,4.4791965 29.875292,2.49965266 L16.8498191,14.6055244 C16.8264247,14.626307 16.8030303,14.6470897 16.7796359,14.6652744 C15.5709261,15.5693181 12.818187,18.8321882 12.2073337,19.9570471 L1.95539492,56.7552604 Z" id="Shape" fill="#352670"></path>
                            </g>
                        </g>
                    </g>
                </g>
                <g id="Group" transform="translate(156.659798, 135.936710)" fill="#352670">
                    <path d="M1.89234569,41.219714 C1.41665989,41.219714 1.03195225,40.8352357 1.03195225,40.3598334 L1.03195225,1.89121774 C1.03195225,1.41581548 1.41665989,1.03133714 1.89234569,1.03133714 C2.36803149,1.03133714 2.75273913,1.41581548 2.75273913,1.89121774 L2.75273913,40.3624313 C2.75273913,40.8352357 2.36803149,41.219714 1.89234569,41.219714 Z" id="Path"></path>
                    <path d="M3.78469138,1.89121774 C3.78469138,2.93554401 2.93729482,3.78243547 1.89234569,3.78243547 C0.847396558,3.78243547 0,2.93554401 0,1.89121774 C0,0.846891459 0.847396558,0 1.89234569,0 C2.93729482,0 3.78469138,0.846891459 3.78469138,1.89121774 Z" id="Path"></path>
                    <path d="M3.78469138,40.3598334 C3.78469138,41.4041597 2.93729482,42.2510512 1.89234569,42.2510512 C0.847396558,42.2510512 0,41.4041597 0,40.3598334 C0,39.3155072 0.847396558,38.4686157 1.89234569,38.4686157 C2.93729482,38.4686157 3.78469138,39.3155072 3.78469138,40.3598334 Z" id="Path"></path>
                </g>
                <g id="Group" transform="translate(156.659798, 290.302162)" fill="#352670">
                    <path d="M1.89234569,38.8582897 C1.41665989,38.8582897 1.03195225,38.4738114 1.03195225,37.9984091 L1.03195225,32.8391256 C1.03195225,32.3637233 1.41665989,31.979245 1.89234569,31.979245 C2.36803149,31.979245 2.75273913,32.3637233 2.75273913,32.8391256 L2.75273913,37.9984091 C2.75273913,38.4738114 2.36803149,38.8582897 1.89234569,38.8582897 Z M1.89234569,28.5423204 C1.41665989,28.5423204 1.03195225,28.1578421 1.03195225,27.6824398 L1.03195225,22.5231563 C1.03195225,22.047754 1.41665989,21.6632757 1.89234569,21.6632757 C2.36803149,21.6632757 2.75273913,22.047754 2.75273913,22.5231563 L2.75273913,27.6824398 C2.75273913,28.1578421 2.36803149,28.5423204 1.89234569,28.5423204 Z M1.89234569,18.2263512 C1.41665989,18.2263512 1.03195225,17.8418728 1.03195225,17.3664706 L1.03195225,12.207187 C1.03195225,11.7317847 1.41665989,11.3473064 1.89234569,11.3473064 C2.36803149,11.3473064 2.75273913,11.7317847 2.75273913,12.207187 L2.75273913,17.3664706 C2.75273913,17.8418728 2.36803149,18.2263512 1.89234569,18.2263512 Z M1.89234569,7.91038188 C1.41665989,7.91038188 1.03195225,7.52590355 1.03195225,7.05050129 L1.03195225,1.89121774 C1.03195225,1.41581548 1.41665989,1.03133714 1.89234569,1.03133714 C2.36803149,1.03133714 2.75273913,1.41581548 2.75273913,1.89121774 L2.75273913,7.05050129 C2.75273913,7.52330572 2.36803149,7.91038188 1.89234569,7.91038188 Z" id="Shape"></path>
                    <path d="M3.78469138,1.89121774 C3.78469138,2.93554401 2.93729482,3.78243547 1.89234569,3.78243547 C0.847396558,3.78243547 0,2.93554401 0,1.89121774 C0,0.846891459 0.847396558,0 1.89234569,0 C2.93729482,0 3.78469138,0.846891459 3.78469138,1.89121774 Z" id="Path"></path>
                </g>
                <g id="Group" transform="translate(237.770325, 231.956156)" fill="#352670">
                    <path d="M28.0424685,3.16557168 L2.27745415,3.16557168 C1.80176835,3.16557168 1.41706071,2.78109335 1.41706071,2.30569109 C1.41706071,1.83028883 1.80176835,1.4458105 2.27745415,1.4458105 L28.0424685,1.4458105 C28.5181543,1.4458105 28.902862,1.83028883 28.902862,2.30569109 C28.902862,2.77849553 28.5181543,3.16557168 28.0424685,3.16557168 Z" id="Path"></path>
                    <ellipse id="Oval" transform="translate(2.276492, 2.275135) rotate(-13.285796) translate(-2.276492, -2.275135) " cx="2.27649186" cy="2.27513494" rx="1.89221637" ry="1.89120759"></ellipse>
                    <ellipse id="Oval" transform="translate(28.043456, 2.336090) rotate(-76.714204) translate(-28.043456, -2.336090) " cx="28.0434558" cy="2.33609034" rx="1.89120759" ry="1.89221637"></ellipse>
                </g>
                <g id="Group" transform="translate(346.348693, 290.302162)" fill="#352670">
                    <path d="M2.27501906,28.5007552 C1.79933326,28.5007552 1.41462562,28.1162769 1.41462562,27.6408746 L1.41462562,1.89121774 C1.41462562,1.41581548 1.79933326,1.03133714 2.27501906,1.03133714 C2.75070485,1.03133714 3.13541249,1.41581548 3.13541249,1.89121774 L3.13541249,27.6408746 C3.13541249,28.1162769 2.75070485,28.5007552 2.27501906,28.5007552 Z" id="Path"></path>
                    <ellipse id="Oval" transform="translate(2.276492, 27.681177) rotate(-76.714204) translate(-2.276492, -27.681177) " cx="2.27649186" cy="27.6811768" rx="1.89120759" ry="1.89221637"></ellipse>
                    <path d="M0.385272744,1.89121774 C0.385272744,0.846891459 1.2326693,-1.13619074e-13 2.27761843,-1.13619074e-13 C3.32256756,-1.13619074e-13 4.16996412,0.846891459 4.16996412,1.89121774 C4.16996412,2.93554401 3.32256756,3.78243547 2.27761843,3.78243547 C1.23006993,3.78243547 0.385272744,2.93554401 0.385272744,1.89121774 Z" id="Path"></path>
                </g>
                <g id="Group" transform="translate(25.388049, 50.465618)">
                    <path d="M364.825678,397.677888 C363.221863,397.87792 361.758415,396.740072 361.558263,395.137213 C361.358111,393.534354 362.496637,392.071778 364.100452,391.871745 C365.704267,391.671713 367.167716,392.809561 367.367868,394.41242 C367.56802,396.017877 366.429493,397.477855 364.825678,397.677888 Z" id="Path" fill="#DFE1FF"></path>
                    <path d="M426.337311,22.9933629 C425.430128,22.9933629 424.556738,22.6946128 423.828913,22.1282866 C422.96592,21.4554496 422.414852,20.4890581 422.279685,19.4031666 C422.144517,18.3172751 422.440846,17.2443727 423.111485,16.3818943 C423.784723,15.5194159 424.751691,14.9686766 425.83823,14.8335897 C426.92217,14.6959049 427.998312,14.9946549 428.861305,15.6648942 C429.724297,16.3377312 430.275365,17.3041227 430.410533,18.3900142 C430.688666,20.6293407 429.092649,22.6790259 426.851987,22.9595911 C426.680428,22.9829716 426.50627,22.9933629 426.337311,22.9933629 Z M426.350307,16.5221769 C426.251531,16.5221769 426.152755,16.5273726 426.051379,16.5403617 C425.42233,16.6182965 424.860865,16.9378292 424.470959,17.4392097 C424.081052,17.9405902 423.909493,18.5614708 423.987475,19.1927426 C424.065456,19.8214167 424.385179,20.3825472 424.886859,20.774819 C425.388538,21.164493 426.009789,21.3359495 426.641438,21.2580147 C427.941126,21.0969495 428.869103,19.9071449 428.705342,18.6082317 C428.627361,17.9795576 428.307638,17.4184271 427.805958,17.0287531 C427.38226,16.6962313 426.875381,16.5221769 426.350307,16.5221769 Z" id="Shape" fill="#352670"></path>
                    <g transform="translate(404.182816, 0.000000)" fill="#352670" id="Path">
                        <path d="M7.2288776,4.538403 C7.22627822,4.538403 7.22367885,4.538403 7.22367885,4.538403 C6.74799305,4.53580518 6.36588479,4.14613119 6.36847098,3.67332676 L6.38927917,0.854684938 C6.39187854,0.381880504 6.77658618,0 7.24967261,0 C7.25227198,0 7.25487136,0 7.25487136,0 C7.73055716,0.00259782656 8.11266542,0.392271811 8.11007923,0.865076245 L8.08927104,3.68371806 C8.08667166,4.15912032 7.70196402,4.538403 7.2288776,4.538403 Z"></path>
                        <path d="M7.15609507,14.4023505 C7.1534957,14.4023505 7.15089632,14.4023505 7.15089632,14.4023505 C6.67521052,14.3997526 6.29310226,14.0100786 6.29830101,13.5372742 L6.31909602,10.7186324 C6.32169539,10.245828 6.70640303,9.86394745 7.17948946,9.86394745 C7.18208883,9.86394745 7.18468821,9.86394745 7.18468821,9.86394745 C7.66037401,9.86654528 8.04248227,10.2562193 8.03728352,10.7290237 L8.01648851,13.5476655 C8.01388913,14.0230678 7.62918149,14.4023505 7.15609507,14.4023505 Z"></path>
                        <path d="M3.67813006,8.05586016 C3.67813006,8.05586016 3.67813006,8.05586016 3.67813006,8.05586016 L0.857807157,8.05066451 C0.382121359,8.05066451 -0.00258628062,7.66358835 0,7.19078392 C0,6.71538166 0.384720735,6.33090333 0.860406533,6.33090333 C0.860406533,6.33090333 0.860406533,6.33090333 0.863005909,6.33090333 L3.68332881,6.33609898 C4.15901461,6.33609898 4.54372225,6.72317514 4.54113597,7.19597957 C4.5385235,7.67138183 4.15381586,8.05586016 3.67813006,8.05586016 Z"></path>
                        <path d="M13.5479605,8.07144712 C13.5479605,8.07144712 13.5479605,8.07144712 13.5479605,8.07144712 L10.7276376,8.06625147 C10.2519518,8.06625147 9.86724418,7.67917531 9.86983046,7.20637088 C9.86983046,6.73096862 10.2545512,6.34649029 10.730237,6.34649029 C10.730237,6.34649029 10.730237,6.34649029 10.7328364,6.34649029 L13.5531593,6.35168594 C14.0288451,6.35168594 14.4135527,6.7387621 14.4109664,7.21156653 C14.408354,7.68696879 14.0236463,8.07144712 13.5479605,8.07144712 Z"></path>
                    </g>
                    <g transform="translate(0.000000, 8.652707)" fill="#352670" id="Path">
                        <path d="M8.76836002,3.98571918 C8.54481369,3.98571918 8.32386673,3.8999909 8.1549073,3.72853435 C7.82218718,3.39081689 7.82478655,2.84527332 8.16270542,2.51275152 L10.4215631,0.289011981 C10.759482,-0.043509819 11.3053509,-0.0409119925 11.6380711,0.29680546 C11.9707912,0.634522913 11.9681918,1.18006649 11.6302729,1.51258829 L9.37141524,3.73632783 C9.2024558,3.90258873 8.98410822,3.98571918 8.76836002,3.98571918 Z"></path>
                        <path d="M0.861058395,11.7740032 C0.637512063,11.7740032 0.416565108,11.6882749 0.247605671,11.5168184 C-0.0851144496,11.1791009 -0.0825150736,10.6335573 0.255403799,10.3010355 L2.5142615,8.07469818 C2.85218037,7.74217638 3.39804932,7.74477421 3.73076944,8.08249166 C4.06348956,8.42020912 4.06089018,8.96575269 3.72297131,9.29827449 L1.46411361,11.5246119 C1.29775355,11.6908728 1.07940597,11.7740032 0.861058395,11.7740032 Z"></path>
                        <path d="M3.14331047,3.96233874 C2.92236352,3.96233874 2.70141656,3.87661046 2.5350565,3.71034956 L0.296993814,1.46582741 C-0.0383256825,1.13070779 -0.0383256825,0.585164209 0.29959319,0.250044582 C0.637512063,-0.085075044 1.18078164,-0.0824772174 1.51610113,0.252642409 L3.75416382,2.49716456 C4.08948332,2.83228418 4.08948332,3.37782776 3.75156445,3.71294739 C3.58260501,3.87661046 3.36425743,3.96233874 3.14331047,3.96233874 Z"></path>
                        <path d="M10.9804289,11.8181663 C10.759482,11.8181663 10.538535,11.732438 10.372175,11.5661771 L8.13151291,9.32165493 C7.79619342,8.98653531 7.79619342,8.44099173 8.13411229,8.1058721 C8.46943179,7.77075248 9.01530073,7.77075248 9.35062023,8.10846993 L11.5912823,10.3529921 C11.9266018,10.6881117 11.9266018,11.2336553 11.5886829,11.5687749 C11.4197235,11.7350358 11.2013759,11.8181663 10.9804289,11.8181663 Z"></path>
                    </g>
                    <g transform="translate(249.922199, 68.453703)" fill="#352670" id="Path">
                        <path d="M8.76836002,3.98928835 C8.54481369,3.98928835 8.32386673,3.90356008 8.1549073,3.73210352 C7.82218718,3.39438607 7.82478655,2.84884249 8.16270542,2.51632069 L10.4215631,0.292581157 C10.759482,-0.039940643 11.3053509,-0.0373428165 11.6380711,0.300374636 C11.9707912,0.638092089 11.9681918,1.18363567 11.6302729,1.51615747 L9.37141524,3.739897 C9.20505518,3.9061579 8.9867076,3.98928835 8.76836002,3.98928835 Z"></path>
                        <path d="M0.861058395,11.7749746 C0.637512063,11.7749746 0.416565108,11.6892463 0.247605671,11.5177897 C-0.0851144496,11.1800723 -0.0825150736,10.6345287 0.255403799,10.3020069 L2.5142615,8.07826736 C2.85218037,7.74574556 3.39804932,7.74834339 3.73076944,8.08606084 C4.06348956,8.42377829 4.06089018,8.96932187 3.72297131,9.30184367 L1.46411361,11.5255832 C1.29775355,11.6944419 1.07940597,11.7749746 0.861058395,11.7749746 Z"></path>
                        <path d="M3.14590985,3.96331009 C2.9249629,3.96331009 2.70401594,3.87758181 2.53765588,3.71132091 L0.29959319,1.46679876 C-0.0357263066,1.13167914 -0.0357263066,0.586135558 0.302192566,0.251015932 C0.637512063,-0.0841036946 1.18338101,-0.0841036946 1.51870051,0.253613758 L3.7567632,2.49813591 C4.09208269,2.83325553 4.09208269,3.37879911 3.75416382,3.71391874 C3.58520439,3.88017964 3.36425743,3.96331009 3.14590985,3.96331009 Z"></path>
                        <path d="M10.9830283,11.8217354 C10.7620814,11.8217354 10.5411344,11.7360072 10.3747744,11.5697463 L8.13671167,9.32522411 C7.80139217,8.99010448 7.80139217,8.4445609 8.13931104,8.10944128 C8.47722991,7.77432165 9.02049949,7.77432165 9.35581898,8.1120391 L11.5938817,10.3565613 C11.9292012,10.6916809 11.9292012,11.2372245 11.5912823,11.5723441 C11.4223229,11.738605 11.2013759,11.8217354 10.9830283,11.8217354 Z"></path>
                    </g>
                    <path d="M356.707827,406.832629 C355.135205,408.85114 352.223904,409.214835 350.204189,407.64315 C348.184473,406.071465 347.820561,403.1619 349.393183,401.143388 C350.965806,399.124877 353.877107,398.761181 355.896822,400.332866 C357.916537,401.901954 358.28045,404.814117 356.707827,406.832629 Z" id="Path" fill="#B0B3F8"></path>
                    <path d="M34.4527937,75.5032312 C33.3792515,75.5032312 32.3395011,75.1499267 31.4791077,74.4770897 C30.4549535,73.6795569 29.8025102,72.5339154 29.6413489,71.2453934 C29.4801876,69.9594693 29.8311033,68.6865343 30.6291117,67.6629906 C31.4271201,66.6394469 32.5734449,65.9873925 33.8627354,65.8263272 C35.1520259,65.6626641 36.4231207,66.0159686 37.4472748,66.8135013 C38.4714289,67.6110341 39.1238723,68.7566756 39.2850336,70.0451976 C39.4461949,71.3337195 39.0952792,72.6040567 38.2972708,73.6276004 C37.4992623,74.651144 36.3529376,75.3031985 35.0636471,75.4616659 C34.8608958,75.4928399 34.6555451,75.5032312 34.4527937,75.5032312 Z M34.4709894,67.5097188 C34.3410206,67.5097188 34.2084524,67.5175123 34.0758842,67.5330993 C33.2440839,67.6370123 32.5032618,68.0578602 31.9885853,68.720306 C31.4739089,69.380154 31.2477632,70.203665 31.3517382,71.0349695 C31.4557133,71.866274 31.8768122,72.6066545 32.5370537,73.1210242 C33.1998945,73.6353939 34.0212973,73.8614048 34.8530976,73.7574917 L34.8530976,73.7574917 C35.6848979,73.6535786 36.4257201,73.2327307 36.9403965,72.5728828 C37.455073,71.9130349 37.6812187,71.0895238 37.5772436,70.2582193 C37.4732686,69.4269148 37.0521697,68.6865343 36.3919282,68.1721646 C35.8356617,67.7383276 35.1650227,67.5097188 34.4709894,67.5097188 Z" id="Shape" fill="#352670"></path>
                </g>
            </g>
        </g>
    </g>
</svg>