<svg version="1" xmlns="http://www.w3.org/2000/svg" width="682.667" height="682.667" viewBox="0 0 512.000000 512.000000"><path d="M75.8 1.6C58.1 4.8 42.2 13 28.6 25.9 16.2 37.8 7.3 53.1 2.7 70.3L.5 78.5v355l2.2 8.2c2.7 10.3 8.9 23.6 14.7 31.6 5.1 7.2 15.9 17.9 22.9 22.6 6.9 4.7 20.3 10.8 29.4 13.4l7.8 2.2 174.4.3c152.9.2 175.6 0 183.4-1.3 31.8-5.5 58.8-27.9 70.7-58.7 6.2-16.1 6-8.3 6-195.8s.2-179.7-6-195.8c-6.5-16.9-18.8-32.9-32.7-42.8-7.7-5.6-20.9-11.8-31-14.7L434.5.5 259 .3C112.6.2 82.2.4 75.8 1.6zm256.7 115.9c78.6 9.9 128.4 51.1 128.5 106.1 0 15.8-4.3 31.2-13.7 49.5-7.5 14.5-16.4 26.2-31 40.6l-12.4 12.2 12.3 7.2c6.8 4 14.1 8.3 16.3 9.7l3.9 2.5-59.4 15.3c-32.7 8.5-59.9 15.4-60.5 15.4-.5 0 3.1-2.3 8-5.1 13.7-7.8 23.8-15.3 34.3-25.3 29.7-28.3 45.2-62.4 45.2-99.1 0-58.4-40.3-106.3-103.1-122.4-10.4-2.7-20.9-4.1-35.2-5l-12.2-.7 13-1.2c7.2-.7 15-1.4 17.5-1.6 7.9-.7 37.1.5 48.5 1.9zm-145 23.6C172 150 162.9 157 150 169.9c-18 18.1-29.2 35.9-35.9 56.8-17.3 54.8 2.8 110.2 51.4 141.5 23.4 15.1 48.7 22.8 80.7 24.6l12.3.8L245 395c-24.8 2.7-56.4 1.6-80-2.6-67.1-12.2-110.7-49.9-113.7-98.5-1.1-18 2.8-34.4 12.8-54 8-15.4 16.7-26.9 31.6-41.6l12.4-12.2-15.6-9.1c-8.5-5.1-15.7-9.5-15.9-9.9-.4-.6 115.1-30.9 118.4-31 .8-.1-2.6 2.2-7.5 5zm108 35.4c18.3 4.8 28.5 15.8 28.5 30.7 0 16.7-12.2 32.9-32.3 42.6-14.1 6.8-43.3 15.3-63.4 18.3l-8.2 1.2-.7 7.6c-2.1 22.8 10.3 39.4 30.6 40.9 16.2 1.1 31.6-5.4 49-20.8 6.1-5.3 6.7-5.7 8.5-4.3 1.1.8 2.9 2.1 3.9 2.9 1.9 1.3 1.7 1.7-4.4 7.1-22.7 20.7-43.4 29.3-70.2 29.3-12.7 0-20.9-1.9-31.6-7.2-14.2-7-24.6-19.8-28.7-35.4-1.9-7.5-1.9-22.9 0-33.3 7-36.5 37-66.9 76.2-77.1 14.9-3.8 33.4-4.9 42.8-2.5z"/><path d="M260.3 187.9c-7.3 2.7-11.7 6.5-17.4 15.1-9.4 14.1-17 32.6-19.8 48.4-1.7 9.1-1.8 8.9 3.5 8.1 17.5-2.6 36.6-12.1 46.3-23.1 10.4-11.9 14.8-30.8 9.7-41.7-3.8-7.8-12.4-10.5-22.3-6.8z"/></svg>